<svg xmlns="http://www.w3.org/2000/svg" xmlns:xlink="http://www.w3.org/1999/xlink" width="1920" zoomAndPan="magnify" viewBox="0 0 1440 809.999993" height="1080" preserveAspectRatio="xMidYMid meet" version="1.0"><defs><g/><clipPath id="873795d3af"><path d="M 791.914062 51.925781 L 955.246094 51.925781 L 955.246094 215.261719 L 791.914062 215.261719 Z M 791.914062 51.925781 " clip-rule="nonzero"/></clipPath><clipPath id="7eec555cdb"><path d="M 1166.371094 53.464844 L 1328.296875 53.464844 L 1328.296875 215.390625 L 1166.371094 215.390625 Z M 1166.371094 53.464844 " clip-rule="nonzero"/></clipPath><clipPath id="b5d27d5e16"><path d="M 981.222656 51.925781 L 1144.558594 51.925781 L 1144.558594 215.261719 L 981.222656 215.261719 Z M 981.222656 51.925781 " clip-rule="nonzero"/></clipPath></defs><g fill="#f04686" fill-opacity="1"><g transform="translate(77.168366, 403.914432)"><g><path d="M 157.546875 -37.78125 C 210.0625 -284.871094 210.441406 -289.023438 210.441406 -292.804688 C 210.441406 -317.359375 189.28125 -317.359375 156.792969 -317.359375 L 86.140625 -317.359375 C 81.984375 -317.359375 77.828125 -313.960938 77.074219 -309.804688 L 12.84375 -7.554688 C 12.84375 -3.398438 13.980469 0 18.890625 0 L 89.542969 0 C 127.320312 0 149.613281 0 157.546875 -37.78125 Z M 128.457031 -268.625 L 146.589844 -268.625 L 99.742188 -48.738281 L 81.605469 -48.738281 Z M 128.457031 -268.625 "/></g></g></g><g fill="#f04686" fill-opacity="1"><g transform="translate(257.004334, 403.914432)"><g><path d="M 104.652344 -317.359375 C 97.851562 -317.359375 78.585938 -316.984375 72.917969 -290.914062 C 12.84375 -6.800781 12.46875 -6.046875 12.46875 -5.667969 C 12.46875 -2.265625 15.492188 0 18.890625 0 L 63.851562 0 C 68.007812 0 71.785156 -3.398438 72.917969 -7.554688 L 94.832031 -111.832031 L 112.964844 -111.832031 C 91.050781 -6.800781 90.675781 -6.046875 90.675781 -5.667969 C 90.675781 -2.265625 93.695312 0 97.097656 0 L 142.058594 0 C 146.210938 0 149.992188 -3.398438 151.125 -7.554688 C 212.707031 -294.316406 213.085938 -296.960938 213.085938 -299.605469 C 213.085938 -316.984375 197.59375 -317.359375 191.550781 -317.359375 Z M 128.457031 -268.625 L 146.589844 -268.625 L 123.542969 -160.191406 L 105.410156 -160.191406 Z M 128.457031 -268.625 "/></g></g></g><g fill="#f04686" fill-opacity="1"><g transform="translate(437.59593, 403.914432)"><g><path d="M 16.246094 -377.8125 C 12.089844 -377.8125 7.933594 -374.410156 7.179688 -370.253906 L 0 -336.628906 C 0 -332.09375 2.265625 -329.074219 6.046875 -329.074219 L 81.230469 -329.074219 C 12.84375 -6.800781 12.46875 -6.046875 12.46875 -5.667969 C 12.46875 -2.265625 15.492188 0 18.890625 0 L 63.472656 0 C 67.628906 0 71.40625 -3.398438 72.539062 -7.554688 L 140.921875 -329.074219 L 216.109375 -329.074219 C 220.261719 -329.074219 224.417969 -332.472656 225.175781 -336.628906 L 232.355469 -371.765625 C 232.355469 -375.164062 230.085938 -377.8125 226.308594 -377.8125 Z M 16.246094 -377.8125 "/></g></g></g><g fill="#f04686" fill-opacity="1"><g transform="translate(539.226431, 403.914432)"><g><path d="M 104.652344 -317.359375 C 97.851562 -317.359375 78.585938 -316.984375 72.917969 -290.914062 C 12.84375 -6.800781 12.46875 -6.046875 12.46875 -5.667969 C 12.46875 -2.265625 15.492188 0 18.890625 0 L 63.851562 0 C 68.007812 0 71.785156 -3.398438 72.917969 -7.554688 L 94.832031 -111.832031 L 112.964844 -111.832031 C 91.050781 -6.800781 90.675781 -6.046875 90.675781 -5.667969 C 90.675781 -2.265625 93.695312 0 97.097656 0 L 142.058594 0 C 146.210938 0 149.992188 -3.398438 151.125 -7.554688 C 212.707031 -294.316406 213.085938 -296.960938 213.085938 -299.605469 C 213.085938 -316.984375 197.59375 -317.359375 191.550781 -317.359375 Z M 128.457031 -268.625 L 146.589844 -268.625 L 123.542969 -160.191406 L 105.410156 -160.191406 Z M 128.457031 -268.625 "/></g></g></g><path stroke-linecap="butt" transform="matrix(2.498913, 0, 0, 2.498913, 65.479904, 47.376042)" fill="none" stroke-linejoin="miter" d="M 63.044837 122.865528 C 84.047723 24.01628 84.194662 22.356183 84.194662 20.843025 C 84.194662 10.987175 75.742548 10.987175 62.749396 10.987175 L 34.47616 10.987175 C 32.8145 10.987175 31.15284 12.353394 30.857399 14.013492 L 5.130583 134.97392 C 5.130583 136.634017 5.610479 138.000236 7.56758 138.000236 L 35.840816 138.000236 C 50.938008 138.000236 59.870019 138.000236 63.044837 122.865528 Z M 51.417905 30.512856 L 58.652301 30.512856 L 39.901958 118.510509 L 32.667561 118.510509 Z M 113.860691 10.987175 C 111.128253 10.987175 103.413959 11.134114 101.16298 21.580846 C 77.096262 135.267798 76.949323 135.563239 76.949323 135.747694 C 76.949323 137.07796 78.16704 138.000236 79.533259 138.000236 L 97.508266 138.000236 C 99.169926 138.000236 100.683084 136.634017 101.16298 134.97392 L 109.910535 93.263589 L 117.182449 93.263589 C 108.397377 135.267798 108.250438 135.563239 108.250438 135.747694 C 108.250438 137.07796 109.468155 138.000236 110.834375 138.000236 L 128.809381 138.000236 C 130.471041 138.000236 131.9842 136.634017 132.42658 134.97392 C 157.08418 20.214626 157.231119 19.181364 157.231119 18.110586 C 157.231119 11.134114 151.029984 10.987175 148.630503 10.987175 Z M 123.383583 30.512856 L 130.61798 30.512856 L 121.390529 73.884847 L 114.156132 73.884847 Z M 150.729854 -13.190529 C 149.069757 -13.190529 147.408096 -11.82431 147.112655 -10.16265 L 144.233278 3.272882 C 144.233278 5.117434 145.157117 6.299198 146.670275 6.299198 L 176.753674 6.299198 C 149.365198 135.267798 149.216695 135.563239 149.216695 135.747694 C 149.216695 137.07796 150.434413 138.000236 151.800632 138.000236 L 169.628699 138.000236 C 171.29036 138.000236 172.803518 136.634017 173.245898 134.97392 L 200.634374 6.299198 L 230.717772 6.299198 C 232.379433 6.299198 234.03953 4.970495 234.334971 3.272882 L 237.214348 -10.753532 C 237.214348 -12.119751 236.292072 -13.190529 234.777351 -13.190529 Z M 226.79888 10.987175 C 224.066441 10.987175 216.352148 11.134114 214.101169 21.580846 C 190.034451 135.267798 189.885948 135.563239 189.885948 135.747694 C 189.885948 137.07796 191.105229 138.000236 192.469885 138.000236 L 210.446454 138.000236 C 212.108115 138.000236 213.621273 136.634017 214.101169 134.97392 L 222.848724 93.263589 L 230.120637 93.263589 C 221.335566 135.267798 221.187064 135.563239 221.187064 135.747694 C 221.187064 137.07796 222.406344 138.000236 223.771 138.000236 L 241.74757 138.000236 C 243.40923 138.000236 244.922388 136.634017 245.364768 134.97392 C 270.022369 20.214626 270.169308 19.181364 270.169308 18.110586 C 270.169308 11.134114 263.968173 10.987175 261.568692 10.987175 Z M 236.321772 30.512856 L 243.556169 30.512856 L 234.328718 73.884847 L 227.094321 73.884847 Z M 236.321772 30.512856 " stroke="#f4f5f4" stroke-width="2.834944" stroke-opacity="1" stroke-miterlimit="4"/><g fill="#f04686" fill-opacity="1"><g transform="translate(719.818402, 403.914432)"><g/></g></g><g fill="#f04686" fill-opacity="1"><g transform="translate(153.557343, 747.42412)"><g><path d="M 86.140625 -317.359375 C 81.984375 -317.359375 77.828125 -313.960938 77.074219 -309.804688 C 12.84375 -6.800781 12.46875 -6.046875 12.46875 -5.667969 C 12.46875 -2.265625 15.492188 0 18.890625 0 L 63.851562 0 C 68.007812 0 71.785156 -3.398438 72.917969 -7.554688 L 99.742188 -134.5 L 117.875 -134.5 C 91.050781 -6.800781 90.675781 -6.046875 90.675781 -5.667969 C 90.675781 -2.265625 93.695312 0 97.097656 0 L 142.058594 0 C 146.210938 0 149.992188 -3.398438 151.125 -7.554688 L 215.351562 -311.316406 C 215.351562 -314.714844 213.085938 -317.359375 209.308594 -317.359375 L 164.347656 -317.359375 C 160.191406 -317.359375 156.035156 -313.960938 155.28125 -309.804688 L 128.078125 -182.859375 L 109.941406 -182.859375 L 137.144531 -311.316406 C 137.144531 -314.714844 134.878906 -317.359375 131.101562 -317.359375 Z M 86.140625 -317.359375 "/></g></g></g><g fill="#f04686" fill-opacity="1"><g transform="translate(333.393311, 747.42412)"><g><path d="M 77.074219 -309.804688 C 15.867188 -23.425781 15.867188 -20.402344 15.867188 -18.136719 C 15.867188 0 31.734375 0 37.78125 0 L 142.433594 0 C 146.589844 0 150.367188 -3.398438 151.503906 -7.554688 C 214.972656 -309.804688 215.351562 -310.183594 215.351562 -310.9375 C 215.351562 -314.339844 212.707031 -316.605469 209.308594 -316.605469 L 164.347656 -316.605469 C 160.191406 -316.605469 156.035156 -313.203125 154.902344 -309.050781 L 99.742188 -48.738281 L 81.605469 -48.738281 L 137.144531 -311.316406 C 137.144531 -314.714844 134.878906 -317.359375 131.101562 -317.359375 L 86.140625 -317.359375 C 81.984375 -317.359375 77.828125 -313.960938 77.074219 -309.804688 Z M 77.074219 -309.804688 "/></g></g></g><g fill="#f04686" fill-opacity="1"><g transform="translate(513.607074, 747.42412)"><g><path d="M 86.140625 -317.359375 C 81.984375 -317.359375 77.828125 -313.960938 77.074219 -309.804688 C 12.84375 -6.800781 12.46875 -6.046875 12.46875 -5.667969 C 12.46875 -2.265625 15.492188 0 18.890625 0 L 58.9375 0 C 63.09375 0 66.871094 -3.398438 68.007812 -7.554688 L 98.609375 -151.125 C 115.230469 -6.800781 114.855469 -6.046875 114.855469 -5.667969 C 114.855469 -2.265625 117.875 0 121.277344 0 L 160.570312 0 C 164.726562 0 168.503906 -3.398438 169.636719 -7.554688 L 233.863281 -311.316406 C 233.863281 -314.714844 231.597656 -317.359375 227.820312 -317.359375 L 188.527344 -317.359375 C 184.371094 -317.359375 180.214844 -313.960938 179.460938 -309.804688 L 146.589844 -154.902344 L 132.234375 -311.316406 C 132.234375 -314.714844 129.96875 -317.359375 126.1875 -317.359375 Z M 86.140625 -317.359375 "/></g></g></g><g fill="#f04686" fill-opacity="1"><g transform="translate(711.955473, 747.42412)"><g><path d="M 16.246094 -377.8125 C 12.089844 -377.8125 7.933594 -374.410156 7.179688 -370.253906 L 0 -336.628906 C 0 -332.09375 2.265625 -329.074219 6.046875 -329.074219 L 81.230469 -329.074219 C 12.84375 -6.800781 12.46875 -6.046875 12.46875 -5.667969 C 12.46875 -2.265625 15.492188 0 18.890625 0 L 63.472656 0 C 67.628906 0 71.40625 -3.398438 72.539062 -7.554688 L 140.921875 -329.074219 L 216.109375 -329.074219 C 220.261719 -329.074219 224.417969 -332.472656 225.175781 -336.628906 L 232.355469 -371.765625 C 232.355469 -375.164062 230.085938 -377.8125 226.308594 -377.8125 Z M 16.246094 -377.8125 "/></g></g></g><g fill="#f04686" fill-opacity="1"><g transform="translate(813.585974, 747.42412)"><g><path d="M 77.074219 -309.804688 C 12.84375 -6.800781 12.46875 -6.046875 12.46875 -5.667969 C 12.46875 -2.265625 15.492188 0 18.890625 0 L 129.210938 0 C 133.367188 0 137.144531 -3.398438 138.277344 -7.554688 L 145.078125 -41.179688 L 145.078125 -42.691406 C 145.078125 -46.09375 142.8125 -48.738281 139.035156 -48.738281 L 81.605469 -48.738281 L 100.496094 -138.277344 L 139.414062 -138.277344 C 143.566406 -138.277344 147.722656 -141.679688 148.855469 -145.835938 C 156.414062 -183.617188 156.792969 -183.992188 156.792969 -184.75 C 156.792969 -188.148438 154.148438 -190.417969 150.746094 -190.417969 L 111.832031 -190.417969 L 128.457031 -268.625 L 185.882812 -268.625 C 190.039062 -268.625 194.195312 -272.023438 194.949219 -276.179688 L 202.507812 -311.316406 C 202.507812 -314.714844 200.238281 -317.359375 196.460938 -317.359375 L 86.140625 -317.359375 C 81.984375 -317.359375 77.828125 -313.960938 77.074219 -309.804688 Z M 77.074219 -309.804688 "/></g></g></g><g fill="#f04686" fill-opacity="1"><g transform="translate(980.576596, 747.42412)"><g><path d="M 189.28125 -184.75 C 212.707031 -294.316406 213.085938 -296.960938 213.085938 -299.605469 C 213.085938 -316.984375 197.59375 -317.359375 191.550781 -317.359375 L 86.140625 -317.359375 C 81.984375 -317.359375 77.828125 -313.960938 77.074219 -309.804688 C 12.84375 -6.800781 12.46875 -6.046875 12.46875 -5.667969 C 12.46875 -2.265625 15.492188 0 18.890625 0 L 63.851562 0 C 68.007812 0 71.785156 -3.398438 72.917969 -7.554688 L 99.742188 -134.5 L 117.875 -134.5 C 91.050781 -6.800781 90.675781 -6.046875 90.675781 -5.667969 C 90.675781 -2.265625 93.695312 0 97.097656 0 L 142.058594 0 C 146.210938 0 149.992188 -3.398438 151.125 -7.554688 C 177.949219 -133.367188 178.328125 -136.011719 178.328125 -138.65625 C 178.328125 -156.414062 162.835938 -156.414062 156.792969 -156.414062 L 157.546875 -158.300781 C 164.347656 -158.300781 183.992188 -158.300781 189.28125 -184.75 Z M 128.457031 -268.625 L 146.589844 -268.625 L 128.078125 -182.859375 L 109.941406 -182.859375 Z M 128.457031 -268.625 "/></g></g></g><g fill="#f04686" fill-opacity="1"><g transform="translate(1161.168172, 747.42412)"><g><path d="M 104.277344 0 C 111.078125 0 130.34375 -0.378906 136.011719 -26.445312 C 164.347656 -159.8125 164.726562 -162.457031 164.726562 -165.101562 C 164.726562 -182.484375 149.234375 -182.859375 143.191406 -182.859375 L 109.941406 -182.859375 L 128.457031 -268.625 L 183.992188 -268.625 C 188.148438 -268.625 192.304688 -272.023438 193.0625 -276.179688 L 200.238281 -311.316406 C 200.238281 -314.714844 197.972656 -317.359375 194.195312 -317.359375 L 104.652344 -317.359375 C 97.851562 -317.359375 78.585938 -316.984375 72.917969 -291.292969 C 44.203125 -155.28125 43.824219 -152.636719 43.824219 -149.992188 C 43.824219 -132.613281 59.316406 -132.234375 65.359375 -132.234375 L 98.609375 -132.234375 L 81.605469 -53.269531 L 29.847656 -53.269531 C 25.691406 -53.269531 21.914062 -49.871094 20.78125 -45.714844 C 12.84375 -6.800781 12.46875 -6.046875 12.46875 -5.667969 C 12.46875 -2.265625 15.492188 0 18.890625 0 Z M 104.277344 0 "/></g></g></g><path stroke-linecap="butt" transform="matrix(2.498913, 0, 0, 2.498913, 141.868885, 390.885732)" fill="none" stroke-linejoin="miter" d="M 34.475255 10.986423 C 32.815157 10.986423 31.153497 12.352643 30.858056 14.014303 C 5.13124 135.268609 4.982738 135.56405 4.982738 135.748506 C 4.982738 137.077209 6.200455 137.999485 7.566675 137.999485 L 25.543244 137.999485 C 27.203341 137.999485 28.7165 136.634829 29.196396 134.973168 L 39.901052 84.182325 L 47.172965 84.182325 C 36.432356 135.268609 36.283854 135.56405 36.283854 135.748506 C 36.283854 137.077209 37.501571 137.999485 38.86779 137.999485 L 56.84436 137.999485 C 58.504457 137.999485 60.017615 136.634829 60.461558 134.973168 L 86.188374 13.423421 C 86.188374 12.057202 85.266098 10.986423 83.75294 10.986423 L 65.77637 10.986423 C 64.11471 10.986423 62.454613 12.352643 62.121655 14.014303 L 51.27006 64.841099 L 43.998147 64.841099 L 54.887258 13.423421 C 54.887258 12.057202 53.964982 10.986423 52.451824 10.986423 Z M 102.823735 14.014303 C 78.314636 128.625095 78.314636 129.842812 78.314636 130.729135 C 78.314636 137.999485 84.66271 137.999485 87.099708 137.999485 L 128.956978 137.999485 C 130.618638 137.999485 132.131796 136.634829 132.574176 134.973168 C 158.007114 14.014303 158.154053 13.865801 158.154053 13.57036 C 158.154053 12.205704 157.083275 11.319381 155.718619 11.319381 L 137.742049 11.319381 C 136.081952 11.319381 134.420292 12.648084 133.940395 14.309744 L 111.866731 118.51132 L 104.632334 118.51132 L 126.852937 13.423421 C 126.852937 12.057202 125.930661 10.986423 124.417503 10.986423 L 106.440933 10.986423 C 104.780836 10.986423 103.119176 12.352643 102.823735 14.014303 Z M 178.558241 10.986423 C 176.896581 10.986423 175.236483 12.352643 174.941042 14.014303 C 149.212664 135.268609 149.065725 135.56405 149.065725 135.748506 C 149.065725 137.077209 150.283442 137.999485 151.649661 137.999485 L 167.669129 137.999485 C 169.33079 137.999485 170.843948 136.634829 171.286328 134.973168 L 183.541659 77.53881 C 190.185173 135.268609 190.038235 135.56405 190.038235 135.748506 C 190.038235 137.077209 191.255952 137.999485 192.620608 137.999485 L 208.346198 137.999485 C 210.006295 137.999485 211.519454 136.634829 211.963397 134.973168 L 237.654259 13.423421 C 237.654259 12.057202 236.767936 10.986423 235.254778 10.986423 L 219.529188 10.986423 C 217.869091 10.986423 216.20743 12.352643 215.911989 14.014303 L 202.734382 76.025652 L 197.013144 13.423421 C 197.013144 12.057202 196.090867 10.986423 194.577709 10.986423 Z M 229.952472 -13.189718 C 228.292374 -13.189718 226.630714 -11.823498 226.335273 -10.163401 L 223.455896 3.27213 C 223.455896 5.118246 224.379735 6.30001 225.892893 6.30001 L 255.976292 6.30001 C 228.587816 135.268609 228.439313 135.56405 228.439313 135.748506 C 228.439313 137.077209 229.657031 137.999485 231.02325 137.999485 L 248.851317 137.999485 C 250.512978 137.999485 252.026136 136.634829 252.468516 134.973168 L 279.856992 6.30001 L 309.94039 6.30001 C 311.60205 6.30001 313.262148 4.969744 313.557589 3.27213 L 316.436966 -10.754283 C 316.436966 -12.118939 315.51469 -13.189718 313.999968 -13.189718 Z M 294.983884 14.014303 C 269.257069 135.268609 269.11013 135.56405 269.11013 135.748506 C 269.11013 137.077209 270.327847 137.999485 271.692503 137.999485 L 315.839831 137.999485 C 317.499928 137.999485 319.01465 136.634829 319.45703 134.973168 L 322.187905 121.537637 L 322.187905 120.909238 C 322.187905 119.544582 321.265629 118.51132 319.752471 118.51132 L 296.792483 118.51132 L 304.359838 82.669167 L 319.89941 82.669167 C 321.56107 82.669167 323.258683 81.304511 323.701063 79.64285 C 326.728943 64.509705 326.875882 64.361203 326.875882 64.065762 C 326.875882 62.699543 325.805104 61.814783 324.440447 61.814783 L 308.863359 61.814783 L 315.54439 30.513668 L 338.502814 30.513668 C 340.164475 30.513668 341.824572 29.147448 342.157529 27.487351 L 345.147892 13.423421 C 345.147892 12.057202 344.261569 10.986423 342.748411 10.986423 L 298.601083 10.986423 C 296.940986 10.986423 295.279325 12.352643 294.983884 14.014303 Z M 406.694977 64.065762 C 416.069367 20.215438 416.217869 19.182176 416.217869 18.111398 C 416.217869 11.134926 410.016734 10.986423 407.617253 10.986423 L 365.427026 10.986423 C 363.765366 10.986423 362.105269 12.352643 361.809828 14.014303 C 336.083012 135.268609 335.93451 135.56405 335.93451 135.748506 C 335.93451 137.077209 337.152227 137.999485 338.518446 137.999485 L 356.495016 137.999485 C 358.155113 137.999485 359.668271 136.634829 360.148167 134.973168 L 370.852824 84.182325 L 378.124737 84.182325 C 367.384127 135.268609 367.235625 135.56405 367.235625 135.748506 C 367.235625 137.077209 368.453342 137.999485 369.819562 137.999485 L 387.796131 137.999485 C 389.456228 137.999485 390.969387 136.634829 391.41333 134.973168 C 402.153939 84.626268 402.302441 83.55549 402.302441 82.522228 C 402.302441 75.397254 396.101306 75.397254 393.701825 75.397254 L 393.997266 74.659433 C 396.728141 74.659433 404.590937 74.659433 406.694977 64.065762 Z M 382.36877 30.513668 L 389.60473 30.513668 L 382.221831 64.841099 L 374.949918 64.841099 Z M 444.930359 137.999485 C 447.661234 137.999485 455.375527 137.852546 457.664023 127.405814 C 468.995514 74.032598 469.144016 72.999336 469.144016 71.928557 C 469.144016 64.988038 462.942881 64.841099 460.505884 64.841099 L 447.218854 64.841099 L 454.637706 30.513668 L 476.858309 30.513668 C 478.51997 30.513668 480.180067 29.147448 480.475508 27.487351 L 483.354885 13.423421 C 483.354885 12.057202 482.432609 10.986423 480.919451 10.986423 L 445.114814 10.986423 C 442.382375 10.986423 434.668082 11.134926 432.417103 21.433155 C 420.901156 75.87715 420.752654 76.911975 420.752654 77.98119 C 420.752654 84.921709 426.953789 85.068648 429.390787 85.068648 L 442.677816 85.068648 L 435.885799 116.665205 L 415.178355 116.665205 C 413.518257 116.665205 412.005099 118.031424 411.525203 119.691521 C 408.350384 135.268609 408.203446 135.56405 408.203446 135.748506 C 408.203446 137.077209 409.421163 137.999485 410.787382 137.999485 Z M 444.930359 137.999485 " stroke="#f4f5f4" stroke-width="2.834944" stroke-opacity="1" stroke-miterlimit="4"/><path stroke-linecap="butt" transform="matrix(0.75, 0, 0, 0.75, 40.500004, 779.483837)" fill="none" stroke-linejoin="miter" d="M 41.249996 5.500718 L 1759.796958 5.500718 " stroke="#000000" stroke-width="11" stroke-opacity="1" stroke-miterlimit="4"/><path stroke-linecap="round" transform="matrix(0.75, 0, 0, 0.75, 40.500004, 779.483837)" fill="none" stroke-linejoin="round" d="M 5.499995 5.500718 C 5.499995 -3.613866 12.885412 -10.999283 21.999996 -10.999283 C 31.114579 -10.999283 38.499996 -3.613866 38.499996 5.500718 C 38.499996 14.615302 31.114579 22.000719 21.999996 22.000719 C 12.885412 22.000719 5.499995 14.615302 5.499995 5.500718 " stroke="#000000" stroke-width="11" stroke-opacity="1" stroke-miterlimit="4"/><path stroke-linecap="round" transform="matrix(0.75, 0, 0, 0.75, 40.500004, 779.483837)" fill="none" stroke-linejoin="round" d="M 1795.54696 5.500718 C 1795.54696 14.615302 1788.161543 22.000719 1779.046959 22.000719 C 1769.937583 22.000719 1762.546958 14.615302 1762.546958 5.500718 C 1762.546958 -3.613866 1769.937583 -10.999283 1779.046959 -10.999283 C 1788.161543 -10.999283 1795.54696 -3.613866 1795.54696 5.500718 " stroke="#000000" stroke-width="11" stroke-opacity="1" stroke-miterlimit="4"/><g clip-path="url(#873795d3af)"><path fill="#f7f7f0" d="M 905.585938 215.769531 L 905.585938 201.546875 L 842.082031 201.546875 L 842.082031 215.769531 L 799.023438 215.769531 L 799.023438 201.546875 L 791.914062 201.546875 L 791.914062 179.820312 L 799.023438 179.820312 L 799.023438 158.914062 L 791.914062 158.914062 L 791.914062 94.558594 L 813.210938 94.558594 L 813.210938 80.371094 L 834.542969 80.335938 L 834.542969 66.148438 L 848.734375 66.148438 L 848.734375 51.925781 L 898.902344 51.925781 L 898.902344 66.148438 L 913.121094 66.148438 L 913.121094 80.335938 L 934.421875 80.371094 L 934.421875 94.558594 L 955.753906 94.558594 L 955.753906 158.914062 L 948.640625 158.914062 L 948.640625 179.820312 L 955.753906 179.820312 L 955.753906 201.546875 L 948.640625 201.546875 L 948.640625 215.769531 Z M 905.585938 215.769531 " fill-opacity="1" fill-rule="nonzero"/></g><path fill="#000000" d="M 873.832031 55.695312 L 852.5 55.695312 L 852.5 69.917969 L 838.3125 69.917969 L 838.3125 84.105469 L 816.980469 84.105469 L 816.980469 98.328125 L 795.679688 98.328125 L 795.679688 155.148438 L 802.792969 155.148438 L 802.792969 183.589844 L 795.679688 183.589844 L 795.679688 197.777344 L 802.792969 197.777344 L 802.792969 212 L 838.3125 212 L 838.3125 197.777344 L 909.351562 197.777344 L 909.351562 212 L 944.875 212 L 944.875 197.777344 L 951.984375 197.777344 L 951.984375 183.589844 L 944.875 183.589844 L 944.875 155.148438 L 951.984375 155.148438 L 951.984375 98.328125 L 930.652344 98.328125 L 930.652344 84.105469 L 909.351562 84.105469 L 909.351562 69.917969 L 895.132812 69.917969 L 895.132812 55.695312 L 880.945312 55.695312 " fill-opacity="1" fill-rule="nonzero"/><path fill="#d358b3" d="M 930.652344 112.546875 L 923.542969 112.546875 L 923.542969 98.328125 L 902.210938 98.328125 L 902.210938 84.105469 L 887.988281 84.105469 L 887.988281 69.917969 L 859.546875 69.917969 L 859.546875 84.136719 L 845.324219 84.136719 L 845.324219 98.359375 L 823.992188 98.359375 L 823.992188 112.546875 L 809.769531 112.546875 L 809.769531 155.179688 L 845.324219 155.179688 L 845.324219 169.402344 L 823.992188 169.402344 L 823.992188 183.621094 L 809.769531 183.621094 L 809.769531 197.84375 L 831.101562 197.84375 L 831.101562 183.621094 L 852.433594 183.621094 L 852.433594 169.402344 L 866.65625 169.402344 L 866.65625 183.621094 L 880.878906 183.621094 L 880.878906 169.402344 L 895.097656 169.402344 L 895.097656 183.621094 L 916.429688 183.621094 L 916.429688 197.84375 L 937.761719 197.84375 L 937.761719 183.621094 L 923.542969 183.621094 L 923.542969 169.402344 L 902.210938 169.402344 L 902.210938 155.179688 L 937.761719 155.179688 L 937.761719 112.546875 Z M 930.652344 112.546875 " fill-opacity="1" fill-rule="nonzero"/><path fill="#f9f346" d="M 902.242188 112.546875 L 888.019531 112.546875 L 888.019531 126.738281 L 909.351562 126.738281 L 909.351562 112.546875 Z M 902.242188 112.546875 " fill-opacity="1" fill-rule="nonzero"/><path fill="#f9f346" d="M 852.5 112.546875 L 838.3125 112.546875 L 838.3125 126.738281 L 859.613281 126.738281 L 859.613281 112.546875 Z M 852.5 112.546875 " fill-opacity="1" fill-rule="nonzero"/><g clip-path="url(#7eec555cdb)"><path fill="#f7f7f0" d="M 1328.691406 173.550781 L 1328.691406 109.789062 L 1321.648438 109.789062 L 1321.648438 95.699219 L 1307.558594 95.699219 L 1307.558594 81.644531 L 1300.511719 81.644531 L 1300.511719 67.554688 L 1279.410156 67.554688 L 1279.410156 53.464844 L 1215.652344 53.464844 L 1215.652344 67.554688 L 1194.515625 67.554688 L 1194.515625 81.644531 L 1187.472656 81.644531 L 1187.472656 95.699219 L 1173.414062 95.699219 L 1173.414062 109.789062 L 1166.371094 109.789062 L 1166.371094 173.550781 L 1173.414062 173.550781 L 1173.414062 180.171875 L 1166.371094 180.171875 L 1166.371094 201.695312 L 1173.414062 201.695312 L 1173.414062 215.785156 L 1209.027344 215.785156 L 1209.027344 201.695312 L 1286.035156 201.695312 L 1286.035156 215.785156 L 1321.648438 215.785156 L 1321.648438 201.695312 L 1328.691406 201.695312 L 1328.691406 180.171875 L 1321.648438 180.171875 L 1321.648438 173.550781 Z M 1328.691406 173.550781 " fill-opacity="1" fill-rule="nonzero"/></g><path fill="#000000" d="M 1317.914062 113.523438 L 1317.914062 99.433594 L 1303.824219 99.433594 L 1303.824219 85.34375 L 1296.78125 85.34375 L 1296.78125 71.285156 L 1275.679688 71.285156 L 1275.679688 57.199219 L 1219.386719 57.199219 L 1219.386719 71.285156 L 1198.25 71.285156 L 1198.25 85.34375 L 1191.207031 85.34375 L 1191.207031 99.433594 L 1177.148438 99.433594 L 1177.148438 113.523438 L 1170.105469 113.523438 L 1170.105469 169.816406 L 1177.148438 169.816406 L 1177.148438 183.90625 L 1170.105469 183.90625 L 1170.105469 197.964844 L 1177.148438 197.964844 L 1177.148438 212.054688 L 1205.296875 212.054688 L 1205.296875 197.964844 L 1289.769531 197.964844 L 1289.769531 212.054688 L 1317.914062 212.054688 L 1317.914062 197.964844 L 1324.960938 197.964844 L 1324.960938 183.90625 L 1317.914062 183.90625 L 1317.914062 169.816406 L 1324.960938 169.816406 L 1324.960938 113.523438 Z M 1317.914062 113.523438 " fill-opacity="1" fill-rule="nonzero"/><path fill="#f14787" d="M 1282.722656 183.90625 L 1282.722656 169.816406 L 1296.8125 169.816406 L 1296.8125 183.90625 Z M 1303.824219 197.964844 L 1310.871094 197.964844 L 1310.871094 183.875 L 1296.78125 183.875 L 1296.78125 197.964844 Z M 1310.871094 113.523438 L 1310.871094 155.757812 L 1282.691406 155.757812 L 1282.691406 169.847656 L 1268.601562 169.847656 L 1268.601562 183.9375 L 1226.332031 183.9375 L 1226.332031 169.847656 L 1212.242188 169.847656 L 1212.242188 155.726562 L 1184.0625 155.726562 L 1184.0625 113.523438 L 1205.199219 113.523438 L 1205.199219 85.34375 L 1226.332031 85.34375 L 1226.332031 71.285156 L 1268.601562 71.285156 L 1268.601562 85.375 L 1289.734375 85.375 L 1289.734375 113.554688 L 1303.824219 113.554688 Z M 1198.25 169.816406 L 1198.25 183.90625 L 1212.339844 183.90625 L 1212.339844 169.816406 Z M 1184.195312 183.90625 L 1184.195312 197.996094 L 1198.28125 197.996094 L 1198.28125 183.90625 Z M 1184.195312 183.90625 " fill-opacity="1" fill-rule="nonzero"/><path fill="#f9f346" d="M 1268.632812 127.582031 L 1261.589844 127.582031 L 1261.589844 113.492188 L 1275.679688 113.492188 L 1275.679688 127.582031 Z M 1219.386719 113.523438 L 1219.386719 127.613281 L 1233.472656 127.613281 L 1233.472656 113.523438 Z M 1219.386719 113.523438 " fill-opacity="1" fill-rule="nonzero"/><g clip-path="url(#b5d27d5e16)"><path fill="#f7f7f0" d="M 1137.574219 144.503906 L 1137.574219 130.316406 L 1144.667969 130.316406 L 1144.667969 80.300781 L 1137.574219 80.300781 L 1137.574219 66.113281 L 1109.234375 66.113281 L 1109.234375 51.925781 L 1073.375 51.925781 L 1073.375 66.113281 L 1052.519531 66.113281 L 1052.519531 51.925781 L 1016.660156 51.925781 L 1016.660156 66.113281 L 988.316406 66.113281 L 988.316406 80.300781 L 981.222656 80.300781 L 981.222656 130.316406 L 988.316406 130.316406 L 988.316406 144.503906 L 995.410156 144.503906 L 995.410156 165.324219 L 988.316406 165.324219 L 988.316406 179.511719 L 981.222656 179.511719 L 981.222656 201.183594 L 988.316406 201.183594 L 988.316406 215.371094 L 1038.363281 215.371094 L 1038.363281 201.183594 L 1087.527344 201.183594 L 1087.527344 215.371094 L 1137.574219 215.371094 L 1137.574219 201.183594 L 1144.667969 201.183594 L 1144.667969 179.511719 L 1137.574219 179.511719 L 1137.574219 165.324219 L 1130.480469 165.324219 L 1130.480469 144.503906 Z M 1137.574219 144.503906 " fill-opacity="1" fill-rule="nonzero"/></g><path fill="#000000" d="M 1133.816406 84.027344 L 1133.816406 69.875 L 1105.472656 69.875 L 1105.472656 55.6875 L 1077.132812 55.6875 L 1077.132812 69.875 L 1048.757812 69.875 L 1048.757812 55.6875 L 1020.417969 55.6875 L 1020.417969 69.875 L 992.078125 69.875 L 992.078125 84.027344 L 984.984375 84.027344 L 984.984375 126.554688 L 992.078125 126.554688 L 992.078125 140.742188 L 999.167969 140.742188 L 999.167969 169.085938 L 992.078125 169.085938 L 992.078125 183.269531 L 984.984375 183.269531 L 984.984375 197.425781 L 992.078125 197.425781 L 992.078125 211.613281 L 1034.605469 211.613281 L 1034.605469 197.425781 L 1091.285156 197.425781 L 1091.285156 211.613281 L 1133.816406 211.613281 L 1133.816406 197.425781 L 1140.910156 197.425781 L 1140.910156 183.269531 L 1133.816406 183.269531 L 1133.816406 169.085938 L 1126.722656 169.085938 L 1126.722656 140.742188 L 1133.816406 140.742188 L 1133.816406 126.554688 L 1140.910156 126.554688 L 1140.910156 84.027344 Z M 1133.816406 84.027344 " fill-opacity="1" fill-rule="nonzero"/><path fill="#80c9f0" d="M 1091.285156 84.027344 L 1084.195312 84.027344 L 1084.195312 69.875 L 1098.378906 69.875 L 1098.378906 84.0625 Z M 1119.660156 84.027344 L 1112.566406 84.027344 L 1112.566406 112.402344 L 1098.378906 112.402344 L 1098.378906 98.214844 L 1084.195312 98.214844 L 1084.195312 84.027344 L 1070.007812 84.027344 L 1070.007812 98.214844 L 1055.820312 98.214844 L 1055.820312 84.027344 L 1041.632812 84.027344 L 1041.632812 98.214844 L 1027.445312 98.214844 L 1027.445312 112.402344 L 1013.257812 112.402344 L 1013.257812 84.027344 L 999.070312 84.027344 L 999.070312 126.589844 L 1013.257812 126.589844 L 1013.257812 183.304688 L 999.070312 183.304688 L 999.070312 197.492188 L 1027.445312 197.492188 L 1027.445312 169.117188 L 1041.632812 169.117188 L 1041.632812 183.304688 L 1055.820312 183.304688 L 1055.820312 169.117188 L 1070.007812 169.117188 L 1070.007812 183.304688 L 1084.195312 183.304688 L 1084.195312 169.117188 L 1098.378906 169.117188 L 1098.378906 197.492188 L 1126.753906 197.492188 L 1126.753906 183.304688 L 1112.566406 183.304688 L 1112.566406 126.589844 L 1126.753906 126.589844 L 1126.753906 84.027344 Z M 1034.605469 84.027344 L 1041.699219 84.027344 L 1041.699219 69.875 L 1027.511719 69.875 L 1027.511719 84.0625 Z M 1034.605469 84.027344 " fill-opacity="1" fill-rule="nonzero"/><path fill="#52829b" d="M 1091.285156 140.742188 L 1091.285156 154.898438 L 1077.101562 154.898438 L 1077.101562 126.554688 L 1091.285156 126.554688 Z M 1048.757812 140.742188 L 1048.757812 126.554688 L 1034.570312 126.554688 L 1034.570312 154.898438 L 1048.757812 154.898438 Z M 1048.757812 140.742188 " fill-opacity="1" fill-rule="nonzero"/><g fill="#f9f346" fill-opacity="1"><g transform="translate(764.375704, 323.472693)"><g><path d="M 99.96875 -73.8125 L 81.1875 0 L 63.359375 0 L 53.375 -38.78125 C 53.164062 -39.519531 52.894531 -40.644531 52.5625 -42.15625 C 52.226562 -43.675781 51.875 -45.332031 51.5 -47.125 C 51.132812 -48.925781 50.804688 -50.625 50.515625 -52.21875 C 50.234375 -53.820312 50.039062 -55.097656 49.9375 -56.046875 C 49.832031 -55.097656 49.632812 -53.832031 49.34375 -52.25 C 49.0625 -50.675781 48.742188 -48.992188 48.390625 -47.203125 C 48.035156 -45.421875 47.691406 -43.753906 47.359375 -42.203125 C 47.023438 -40.660156 46.753906 -39.484375 46.546875 -38.671875 L 36.609375 0 L 18.828125 0 L 0 -73.8125 L 15.40625 -73.8125 L 24.84375 -33.53125 C 25.113281 -32.3125 25.425781 -30.859375 25.78125 -29.171875 C 26.132812 -27.492188 26.484375 -25.738281 26.828125 -23.90625 C 27.179688 -22.070312 27.5 -20.304688 27.78125 -18.609375 C 28.070312 -16.910156 28.285156 -15.4375 28.421875 -14.1875 C 28.585938 -15.46875 28.804688 -16.957031 29.078125 -18.65625 C 29.347656 -20.351562 29.644531 -22.085938 29.96875 -23.859375 C 30.289062 -25.628906 30.617188 -27.269531 30.953125 -28.78125 C 31.285156 -30.289062 31.585938 -31.519531 31.859375 -32.46875 L 42.609375 -73.8125 L 57.40625 -73.8125 L 68.15625 -32.46875 C 68.394531 -31.5625 68.671875 -30.34375 68.984375 -28.8125 C 69.304688 -27.28125 69.632812 -25.617188 69.96875 -23.828125 C 70.3125 -22.046875 70.625 -20.304688 70.90625 -18.609375 C 71.195312 -16.910156 71.410156 -15.4375 71.546875 -14.1875 C 71.785156 -15.875 72.113281 -17.921875 72.53125 -20.328125 C 72.945312 -22.734375 73.398438 -25.128906 73.890625 -27.515625 C 74.378906 -29.910156 74.8125 -31.914062 75.1875 -33.53125 L 84.578125 -73.8125 Z M 99.96875 -73.8125 "/></g></g></g><g fill="#f9f346" fill-opacity="1"><g transform="translate(864.341777, 323.472693)"><g><path d="M 76.296875 -37.015625 C 76.296875 -31.328125 75.585938 -26.148438 74.171875 -21.484375 C 72.753906 -16.816406 70.609375 -12.800781 67.734375 -9.4375 C 64.859375 -6.070312 61.210938 -3.488281 56.796875 -1.6875 C 52.390625 0.113281 47.175781 1.015625 41.15625 1.015625 C 35.125 1.015625 29.90625 0.113281 25.5 -1.6875 C 21.09375 -3.488281 17.445312 -6.070312 14.5625 -9.4375 C 11.6875 -12.800781 9.539062 -16.820312 8.125 -21.5 C 6.71875 -26.1875 6.015625 -31.390625 6.015625 -37.109375 C 6.015625 -44.753906 7.265625 -51.410156 9.765625 -57.078125 C 12.273438 -62.753906 16.140625 -67.15625 21.359375 -70.28125 C 26.578125 -73.414062 33.207031 -74.984375 41.25 -74.984375 C 49.257812 -74.984375 55.847656 -73.414062 61.015625 -70.28125 C 66.179688 -67.15625 70.019531 -62.742188 72.53125 -57.046875 C 75.039062 -51.359375 76.296875 -44.679688 76.296875 -37.015625 Z M 22.421875 -37.015625 C 22.421875 -31.859375 23.066406 -27.421875 24.359375 -23.703125 C 25.660156 -19.984375 27.691406 -17.125 30.453125 -15.125 C 33.210938 -13.125 36.78125 -12.125 41.15625 -12.125 C 45.59375 -12.125 49.191406 -13.125 51.953125 -15.125 C 54.710938 -17.125 56.722656 -19.984375 57.984375 -23.703125 C 59.242188 -27.421875 59.875 -31.859375 59.875 -37.015625 C 59.875 -44.753906 58.425781 -50.84375 55.53125 -55.28125 C 52.644531 -59.726562 47.882812 -61.953125 41.25 -61.953125 C 36.84375 -61.953125 33.25 -60.945312 30.46875 -58.9375 C 27.695312 -56.9375 25.660156 -54.078125 24.359375 -50.359375 C 23.066406 -46.640625 22.421875 -42.191406 22.421875 -37.015625 Z M 22.421875 -37.015625 "/></g></g></g><g fill="#f9f346" fill-opacity="1"><g transform="translate(946.637081, 323.472693)"><g><path d="M 30.796875 -73.8125 C 37.492188 -73.8125 43.019531 -73.003906 47.375 -71.390625 C 51.738281 -69.773438 54.976562 -67.332031 57.09375 -64.0625 C 59.21875 -60.800781 60.28125 -56.679688 60.28125 -51.703125 C 60.28125 -48.335938 59.640625 -45.390625 58.359375 -42.859375 C 57.085938 -40.335938 55.40625 -38.203125 53.3125 -36.453125 C 51.226562 -34.703125 48.972656 -33.269531 46.546875 -32.15625 L 68.265625 0 L 50.890625 0 L 33.28125 -28.328125 L 24.9375 -28.328125 L 24.9375 0 L 9.296875 0 L 9.296875 -73.8125 Z M 29.6875 -61 L 24.9375 -61 L 24.9375 -41.046875 L 29.984375 -41.046875 C 35.171875 -41.046875 38.882812 -41.910156 41.125 -43.640625 C 43.363281 -45.378906 44.484375 -47.929688 44.484375 -51.296875 C 44.484375 -54.796875 43.28125 -57.285156 40.875 -58.765625 C 38.46875 -60.253906 34.738281 -61 29.6875 -61 Z M 29.6875 -61 "/></g></g></g><g fill="#f9f346" fill-opacity="1"><g transform="translate(1014.896743, 323.472693)"><g><path d="M 68.671875 0 L 50.890625 0 L 31.5625 -31.109375 L 24.9375 -26.359375 L 24.9375 0 L 9.296875 0 L 9.296875 -73.8125 L 24.9375 -73.8125 L 24.9375 -40.046875 C 25.988281 -41.484375 27.015625 -42.925781 28.015625 -44.375 C 29.023438 -45.820312 30.054688 -47.269531 31.109375 -48.71875 L 51.09375 -73.8125 L 68.46875 -73.8125 L 42.71875 -41.15625 Z M 68.671875 0 "/></g></g></g><g fill="#f9f346" fill-opacity="1"><g transform="translate(1083.560309, 323.472693)"><g><path d="M 52.859375 -20.5 C 52.859375 -16.125 51.796875 -12.316406 49.671875 -9.078125 C 47.554688 -5.847656 44.46875 -3.359375 40.40625 -1.609375 C 36.351562 0.140625 31.4375 1.015625 25.65625 1.015625 C 23.09375 1.015625 20.585938 0.84375 18.140625 0.5 C 15.703125 0.164062 13.363281 -0.328125 11.125 -0.984375 C 8.894531 -1.640625 6.769531 -2.457031 4.75 -3.4375 L 4.75 -17.96875 C 8.25 -16.425781 11.882812 -15.03125 15.65625 -13.78125 C 19.425781 -12.539062 23.160156 -11.921875 26.859375 -11.921875 C 29.421875 -11.921875 31.484375 -12.253906 33.046875 -12.921875 C 34.609375 -13.597656 35.742188 -14.523438 36.453125 -15.703125 C 37.160156 -16.878906 37.515625 -18.222656 37.515625 -19.734375 C 37.515625 -21.585938 36.890625 -23.171875 35.640625 -24.484375 C 34.398438 -25.796875 32.691406 -27.023438 30.515625 -28.171875 C 28.347656 -29.316406 25.898438 -30.546875 23.171875 -31.859375 C 21.453125 -32.671875 19.582031 -33.65625 17.5625 -34.8125 C 15.550781 -35.976562 13.632812 -37.398438 11.8125 -39.078125 C 10 -40.765625 8.507812 -42.8125 7.34375 -45.21875 C 6.1875 -47.625 5.609375 -50.507812 5.609375 -53.875 C 5.609375 -58.28125 6.613281 -62.046875 8.625 -65.171875 C 10.644531 -68.304688 13.53125 -70.707031 17.28125 -72.375 C 21.039062 -74.039062 25.476562 -74.875 30.59375 -74.875 C 34.4375 -74.875 38.097656 -74.425781 41.578125 -73.53125 C 45.066406 -72.644531 48.710938 -71.359375 52.515625 -69.671875 L 47.46875 -57.515625 C 44.0625 -58.890625 41.007812 -59.957031 38.3125 -60.71875 C 35.625 -61.476562 32.882812 -61.859375 30.09375 -61.859375 C 28.144531 -61.859375 26.476562 -61.546875 25.09375 -60.921875 C 23.71875 -60.296875 22.675781 -59.414062 21.96875 -58.28125 C 21.257812 -57.15625 20.90625 -55.851562 20.90625 -54.375 C 20.90625 -52.625 21.414062 -51.148438 22.4375 -49.953125 C 23.46875 -48.765625 25.015625 -47.613281 27.078125 -46.5 C 29.148438 -45.394531 31.738281 -44.097656 34.84375 -42.609375 C 38.613281 -40.828125 41.832031 -38.96875 44.5 -37.03125 C 47.175781 -35.09375 49.238281 -32.820312 50.6875 -30.21875 C 52.132812 -27.613281 52.859375 -24.375 52.859375 -20.5 Z M 52.859375 -20.5 "/></g></g></g><g fill="#f9f346" fill-opacity="1"><g transform="translate(1140.510679, 323.472693)"><g><path d="M 69.78125 0 L 54.171875 0 L 54.171875 -31.859375 L 24.9375 -31.859375 L 24.9375 0 L 9.296875 0 L 9.296875 -73.8125 L 24.9375 -73.8125 L 24.9375 -44.890625 L 54.171875 -44.890625 L 54.171875 -73.8125 L 69.78125 -73.8125 Z M 69.78125 0 "/></g></g></g><g fill="#f9f346" fill-opacity="1"><g transform="translate(1219.625259, 323.472693)"><g><path d="M 76.296875 -37.015625 C 76.296875 -31.328125 75.585938 -26.148438 74.171875 -21.484375 C 72.753906 -16.816406 70.609375 -12.800781 67.734375 -9.4375 C 64.859375 -6.070312 61.210938 -3.488281 56.796875 -1.6875 C 52.390625 0.113281 47.175781 1.015625 41.15625 1.015625 C 35.125 1.015625 29.90625 0.113281 25.5 -1.6875 C 21.09375 -3.488281 17.445312 -6.070312 14.5625 -9.4375 C 11.6875 -12.800781 9.539062 -16.820312 8.125 -21.5 C 6.71875 -26.1875 6.015625 -31.390625 6.015625 -37.109375 C 6.015625 -44.753906 7.265625 -51.410156 9.765625 -57.078125 C 12.273438 -62.753906 16.140625 -67.15625 21.359375 -70.28125 C 26.578125 -73.414062 33.207031 -74.984375 41.25 -74.984375 C 49.257812 -74.984375 55.847656 -73.414062 61.015625 -70.28125 C 66.179688 -67.15625 70.019531 -62.742188 72.53125 -57.046875 C 75.039062 -51.359375 76.296875 -44.679688 76.296875 -37.015625 Z M 22.421875 -37.015625 C 22.421875 -31.859375 23.066406 -27.421875 24.359375 -23.703125 C 25.660156 -19.984375 27.691406 -17.125 30.453125 -15.125 C 33.210938 -13.125 36.78125 -12.125 41.15625 -12.125 C 45.59375 -12.125 49.191406 -13.125 51.953125 -15.125 C 54.710938 -17.125 56.722656 -19.984375 57.984375 -23.703125 C 59.242188 -27.421875 59.875 -31.859375 59.875 -37.015625 C 59.875 -44.753906 58.425781 -50.84375 55.53125 -55.28125 C 52.644531 -59.726562 47.882812 -61.953125 41.25 -61.953125 C 36.84375 -61.953125 33.25 -60.945312 30.46875 -58.9375 C 27.695312 -56.9375 25.660156 -54.078125 24.359375 -50.359375 C 23.066406 -46.640625 22.421875 -42.191406 22.421875 -37.015625 Z M 22.421875 -37.015625 "/></g></g></g><g fill="#f9f346" fill-opacity="1"><g transform="translate(1301.920563, 323.472693)"><g><path d="M 32.875 -73.8125 C 42.394531 -73.8125 49.34375 -71.765625 53.71875 -67.671875 C 58.09375 -63.585938 60.28125 -57.960938 60.28125 -50.796875 C 60.28125 -47.566406 59.789062 -44.476562 58.8125 -41.53125 C 57.84375 -38.582031 56.253906 -35.960938 54.046875 -33.671875 C 51.847656 -31.390625 48.910156 -29.582031 45.234375 -28.25 C 41.566406 -26.914062 37.039062 -26.25 31.65625 -26.25 L 24.9375 -26.25 L 24.9375 0 L 9.296875 0 L 9.296875 -73.8125 Z M 32.0625 -61 L 24.9375 -61 L 24.9375 -39.078125 L 30.09375 -39.078125 C 33.019531 -39.078125 35.5625 -39.460938 37.71875 -40.234375 C 39.875 -41.015625 41.539062 -42.226562 42.71875 -43.875 C 43.894531 -45.519531 44.484375 -47.640625 44.484375 -50.234375 C 44.484375 -53.867188 43.472656 -56.570312 41.453125 -58.34375 C 39.429688 -60.113281 36.300781 -61 32.0625 -61 Z M 32.0625 -61 "/></g></g></g></svg>