<svg xmlns="http://www.w3.org/2000/svg" xmlns:xlink="http://www.w3.org/1999/xlink" width="1920" zoomAndPan="magnify" viewBox="0 0 1440 809.999993" height="1080" preserveAspectRatio="xMidYMid meet" version="1.0"><defs><g/><clipPath id="1fa2db32cf"><path d="M 789.609375 66.9375 L 947.710938 66.9375 L 947.710938 225.042969 L 789.609375 225.042969 Z M 789.609375 66.9375 " clip-rule="nonzero"/></clipPath><clipPath id="2746f98d03"><path d="M 1152.074219 68.425781 L 1308.8125 68.425781 L 1308.8125 225.167969 L 1152.074219 225.167969 Z M 1152.074219 68.425781 " clip-rule="nonzero"/></clipPath><clipPath id="b2074ebdd4"><path d="M 972.855469 66.9375 L 1130.960938 66.9375 L 1130.960938 225.042969 L 972.855469 225.042969 Z M 972.855469 66.9375 " clip-rule="nonzero"/></clipPath></defs><rect x="-144" width="1728" fill="#ffffff" y="-80.999999" height="971.999992" fill-opacity="1"/><rect x="-144" width="1728" fill="#000000" y="-80.999999" height="971.999992" fill-opacity="1"/><g fill="#f04686" fill-opacity="1"><g transform="translate(97.756804, 407.652343)"><g><path d="M 152.5 -36.570312 C 203.335938 -275.746094 203.699219 -279.769531 203.699219 -283.425781 C 203.699219 -307.195312 183.222656 -307.195312 151.769531 -307.195312 L 83.382812 -307.195312 C 79.359375 -307.195312 75.335938 -303.90625 74.605469 -299.882812 L 12.433594 -7.3125 C 12.433594 -3.292969 13.53125 0 18.285156 0 L 86.671875 0 C 123.246094 0 144.820312 0 152.5 -36.570312 Z M 124.339844 -260.019531 L 141.894531 -260.019531 L 96.546875 -47.175781 L 78.992188 -47.175781 Z M 124.339844 -260.019531 "/></g></g></g><g fill="#f04686" fill-opacity="1"><g transform="translate(271.83305, 407.652343)"><g><path d="M 101.300781 -307.195312 C 94.71875 -307.195312 76.066406 -306.832031 70.582031 -281.597656 C 12.433594 -6.582031 12.070312 -5.851562 12.070312 -5.484375 C 12.070312 -2.195312 14.992188 0 18.285156 0 L 61.804688 0 C 65.828125 0 69.484375 -3.292969 70.582031 -7.3125 L 91.792969 -108.25 L 109.347656 -108.25 C 88.136719 -6.582031 87.769531 -5.851562 87.769531 -5.484375 C 87.769531 -2.195312 90.695312 0 93.988281 0 L 137.507812 0 C 141.53125 0 145.1875 -3.292969 146.285156 -7.3125 C 205.894531 -284.886719 206.261719 -287.449219 206.261719 -290.007812 C 206.261719 -306.832031 191.265625 -307.195312 185.414062 -307.195312 Z M 124.339844 -260.019531 L 141.894531 -260.019531 L 119.585938 -155.0625 L 102.03125 -155.0625 Z M 124.339844 -260.019531 "/></g></g></g><g fill="#f04686" fill-opacity="1"><g transform="translate(446.640725, 407.652343)"><g><path d="M 15.726562 -365.710938 C 11.703125 -365.710938 7.679688 -362.417969 6.949219 -358.394531 L 0 -325.847656 C 0 -321.460938 2.195312 -318.535156 5.851562 -318.535156 L 78.628906 -318.535156 C 12.433594 -6.582031 12.070312 -5.851562 12.070312 -5.484375 C 12.070312 -2.195312 14.992188 0 18.285156 0 L 61.4375 0 C 65.460938 0 69.121094 -3.292969 70.214844 -7.3125 L 136.410156 -318.535156 L 209.1875 -318.535156 C 213.210938 -318.535156 217.230469 -321.824219 217.964844 -325.847656 L 224.910156 -359.859375 C 224.910156 -363.148438 222.71875 -365.710938 219.058594 -365.710938 Z M 15.726562 -365.710938 "/></g></g></g><g fill="#f04686" fill-opacity="1"><g transform="translate(545.016241, 407.652343)"><g><path d="M 101.300781 -307.195312 C 94.71875 -307.195312 76.066406 -306.832031 70.582031 -281.597656 C 12.433594 -6.582031 12.070312 -5.851562 12.070312 -5.484375 C 12.070312 -2.195312 14.992188 0 18.285156 0 L 61.804688 0 C 65.828125 0 69.484375 -3.292969 70.582031 -7.3125 L 91.792969 -108.25 L 109.347656 -108.25 C 88.136719 -6.582031 87.769531 -5.851562 87.769531 -5.484375 C 87.769531 -2.195312 90.695312 0 93.988281 0 L 137.507812 0 C 141.53125 0 145.1875 -3.292969 146.285156 -7.3125 C 205.894531 -284.886719 206.261719 -287.449219 206.261719 -290.007812 C 206.261719 -306.832031 191.265625 -307.195312 185.414062 -307.195312 Z M 124.339844 -260.019531 L 141.894531 -260.019531 L 119.585938 -155.0625 L 102.03125 -155.0625 Z M 124.339844 -260.019531 "/></g></g></g><path stroke-linecap="butt" transform="matrix(2.418878, 0, 0, 2.418878, 86.442695, 62.533032)" fill="none" stroke-linejoin="miter" d="M 63.045219 122.865809 C 84.047012 24.017692 84.195583 22.355959 84.195583 20.842796 C 84.195583 10.987053 75.743189 10.987053 62.749692 10.987053 L 34.475998 10.987053 C 32.814264 10.987053 31.154145 12.353259 30.858619 14.013378 L 5.130009 134.972725 C 5.130009 136.634459 5.611249 138.000665 7.566895 138.000665 L 35.840589 138.000665 C 50.938303 138.000665 59.870323 138.000665 63.045219 122.865809 Z M 51.417929 30.512826 L 58.652687 30.512826 L 39.902067 118.51042 L 32.667308 118.51042 Z M 113.859708 10.987053 C 111.128909 10.987053 103.414525 11.134009 101.163352 21.580806 C 77.096476 135.268252 76.94952 135.563779 76.94952 135.747878 C 76.94952 137.076942 78.167156 138.000665 79.533363 138.000665 L 97.50883 138.000665 C 99.168949 138.000665 100.683727 136.634459 101.163352 134.972725 L 109.911274 93.263051 L 117.183175 93.263051 C 108.398111 135.268252 108.24954 135.563779 108.24954 135.747878 C 108.24954 137.076942 109.467176 138.000665 110.833382 138.000665 L 128.80885 138.000665 C 130.470584 138.000665 131.983746 136.634459 132.426229 134.972725 C 157.084159 20.214599 157.231115 19.181063 157.231115 18.110383 C 157.231115 11.134009 151.029894 10.987053 148.631765 10.987053 Z M 123.382781 30.512826 L 130.61754 30.512826 L 121.389993 73.884234 L 114.155234 73.884234 Z M 150.729522 -13.189637 C 149.069403 -13.189637 147.40767 -11.825045 147.112143 -10.163311 L 144.234389 3.272668 C 144.234389 5.118501 145.156497 6.298994 146.66966 6.298994 L 176.753659 6.298994 C 149.36493 135.268252 149.21636 135.563779 149.21636 135.747878 C 149.21636 137.076942 150.43561 138.000665 151.800202 138.000665 L 169.628714 138.000665 C 171.290447 138.000665 172.80361 136.634459 173.246093 134.972725 L 200.634821 6.298994 L 230.717205 6.298994 C 232.378939 6.298994 234.039057 4.96993 234.334584 3.272668 L 237.213954 -10.754365 C 237.213954 -12.118957 236.291845 -13.189637 234.778682 -13.189637 Z M 226.797839 10.987053 C 224.067041 10.987053 216.352657 11.134009 214.101484 21.580806 C 190.034608 135.268252 189.886037 135.563779 189.886037 135.747878 C 189.886037 137.076942 191.105288 138.000665 192.46988 138.000665 L 210.446962 138.000665 C 212.107081 138.000665 213.620244 136.634459 214.101484 134.972725 L 222.849405 93.263051 L 230.119692 93.263051 C 221.334628 135.268252 221.187672 135.563779 221.187672 135.747878 C 221.187672 137.076942 222.405307 138.000665 223.771514 138.000665 L 241.746982 138.000665 C 243.408715 138.000665 244.921878 136.634459 245.364361 134.972725 C 270.022291 20.214599 270.169247 19.181063 270.169247 18.110383 C 270.169247 11.134009 263.968026 10.987053 261.569897 10.987053 Z M 236.320913 30.512826 L 243.555671 30.512826 L 234.328125 73.884234 L 227.093366 73.884234 Z M 236.320913 30.512826 " stroke="#f4f5f4" stroke-width="2.834944" stroke-opacity="1" stroke-miterlimit="4"/><g fill="#f04686" fill-opacity="1"><g transform="translate(719.824278, 407.652343)"><g/></g></g><g fill="#f04686" fill-opacity="1"><g transform="translate(171.699226, 740.160194)"><g><path d="M 83.382812 -307.195312 C 79.359375 -307.195312 75.335938 -303.90625 74.605469 -299.882812 C 12.433594 -6.582031 12.070312 -5.851562 12.070312 -5.484375 C 12.070312 -2.195312 14.992188 0 18.285156 0 L 61.804688 0 C 65.828125 0 69.484375 -3.292969 70.582031 -7.3125 L 96.546875 -130.191406 L 114.101562 -130.191406 C 88.136719 -6.582031 87.769531 -5.851562 87.769531 -5.484375 C 87.769531 -2.195312 90.695312 0 93.988281 0 L 137.507812 0 C 141.53125 0 145.1875 -3.292969 146.285156 -7.3125 L 208.453125 -301.34375 C 208.453125 -304.636719 206.261719 -307.195312 202.601562 -307.195312 L 159.082031 -307.195312 C 155.0625 -307.195312 151.039062 -303.90625 150.308594 -299.882812 L 123.976562 -177.003906 L 106.421875 -177.003906 L 132.753906 -301.34375 C 132.753906 -304.636719 130.558594 -307.195312 126.902344 -307.195312 Z M 83.382812 -307.195312 "/></g></g></g><g fill="#f04686" fill-opacity="1"><g transform="translate(345.775472, 740.160194)"><g><path d="M 74.605469 -299.882812 C 15.359375 -22.675781 15.359375 -19.75 15.359375 -17.554688 C 15.359375 0 30.71875 0 36.570312 0 L 137.871094 0 C 141.894531 0 145.550781 -3.292969 146.648438 -7.3125 C 208.089844 -299.882812 208.453125 -300.25 208.453125 -300.980469 C 208.453125 -304.269531 205.894531 -306.464844 202.601562 -306.464844 L 159.082031 -306.464844 C 155.0625 -306.464844 151.039062 -303.171875 149.941406 -299.152344 L 96.546875 -47.175781 L 78.992188 -47.175781 L 132.753906 -301.34375 C 132.753906 -304.636719 130.558594 -307.195312 126.902344 -307.195312 L 83.382812 -307.195312 C 79.359375 -307.195312 75.335938 -303.90625 74.605469 -299.882812 Z M 74.605469 -299.882812 "/></g></g></g><g fill="#f04686" fill-opacity="1"><g transform="translate(520.217415, 740.160194)"><g><path d="M 83.382812 -307.195312 C 79.359375 -307.195312 75.335938 -303.90625 74.605469 -299.882812 C 12.433594 -6.582031 12.070312 -5.851562 12.070312 -5.484375 C 12.070312 -2.195312 14.992188 0 18.285156 0 L 57.050781 0 C 61.074219 0 64.730469 -3.292969 65.828125 -7.3125 L 95.449219 -146.285156 C 111.542969 -6.582031 111.175781 -5.851562 111.175781 -5.484375 C 111.175781 -2.195312 114.101562 0 117.394531 0 L 155.425781 0 C 159.449219 0 163.105469 -3.292969 164.203125 -7.3125 L 226.375 -301.34375 C 226.375 -304.636719 224.179688 -307.195312 220.523438 -307.195312 L 182.488281 -307.195312 C 178.464844 -307.195312 174.445312 -303.90625 173.710938 -299.882812 L 141.894531 -149.941406 L 128 -301.34375 C 128 -304.636719 125.804688 -307.195312 122.148438 -307.195312 Z M 83.382812 -307.195312 "/></g></g></g><g fill="#f04686" fill-opacity="1"><g transform="translate(712.213183, 740.160194)"><g><path d="M 15.726562 -365.710938 C 11.703125 -365.710938 7.679688 -362.417969 6.949219 -358.394531 L 0 -325.847656 C 0 -321.460938 2.195312 -318.535156 5.851562 -318.535156 L 78.628906 -318.535156 C 12.433594 -6.582031 12.070312 -5.851562 12.070312 -5.484375 C 12.070312 -2.195312 14.992188 0 18.285156 0 L 61.4375 0 C 65.460938 0 69.121094 -3.292969 70.214844 -7.3125 L 136.410156 -318.535156 L 209.1875 -318.535156 C 213.210938 -318.535156 217.230469 -321.824219 217.964844 -325.847656 L 224.910156 -359.859375 C 224.910156 -363.148438 222.71875 -365.710938 219.058594 -365.710938 Z M 15.726562 -365.710938 "/></g></g></g><g fill="#f04686" fill-opacity="1"><g transform="translate(810.588699, 740.160194)"><g><path d="M 74.605469 -299.882812 C 12.433594 -6.582031 12.070312 -5.851562 12.070312 -5.484375 C 12.070312 -2.195312 14.992188 0 18.285156 0 L 125.074219 0 C 129.097656 0 132.753906 -3.292969 133.851562 -7.3125 L 140.433594 -39.863281 L 140.433594 -41.324219 C 140.433594 -44.617188 138.238281 -47.175781 134.582031 -47.175781 L 78.992188 -47.175781 L 97.277344 -133.851562 L 134.945312 -133.851562 C 138.96875 -133.851562 142.992188 -137.140625 144.089844 -141.164062 C 151.402344 -177.734375 151.769531 -178.101562 151.769531 -178.832031 C 151.769531 -182.125 149.210938 -184.316406 145.917969 -184.316406 L 108.25 -184.316406 L 124.339844 -260.019531 L 179.929688 -260.019531 C 183.953125 -260.019531 187.976562 -263.3125 188.707031 -267.335938 L 196.019531 -301.34375 C 196.019531 -304.636719 193.828125 -307.195312 190.167969 -307.195312 L 83.382812 -307.195312 C 79.359375 -307.195312 75.335938 -303.90625 74.605469 -299.882812 Z M 74.605469 -299.882812 "/></g></g></g><g fill="#f04686" fill-opacity="1"><g transform="translate(972.231007, 740.160194)"><g><path d="M 183.222656 -178.832031 C 205.894531 -284.886719 206.261719 -287.449219 206.261719 -290.007812 C 206.261719 -306.832031 191.265625 -307.195312 185.414062 -307.195312 L 83.382812 -307.195312 C 79.359375 -307.195312 75.335938 -303.90625 74.605469 -299.882812 C 12.433594 -6.582031 12.070312 -5.851562 12.070312 -5.484375 C 12.070312 -2.195312 14.992188 0 18.285156 0 L 61.804688 0 C 65.828125 0 69.484375 -3.292969 70.582031 -7.3125 L 96.546875 -130.191406 L 114.101562 -130.191406 C 88.136719 -6.582031 87.769531 -5.851562 87.769531 -5.484375 C 87.769531 -2.195312 90.695312 0 93.988281 0 L 137.507812 0 C 141.53125 0 145.1875 -3.292969 146.285156 -7.3125 C 172.25 -129.097656 172.613281 -131.65625 172.613281 -134.214844 C 172.613281 -151.402344 157.621094 -151.402344 151.769531 -151.402344 L 152.5 -153.234375 C 159.082031 -153.234375 178.101562 -153.234375 183.222656 -178.832031 Z M 124.339844 -260.019531 L 141.894531 -260.019531 L 123.976562 -177.003906 L 106.421875 -177.003906 Z M 124.339844 -260.019531 "/></g></g></g><g fill="#f04686" fill-opacity="1"><g transform="translate(1147.038662, 740.160194)"><g><path d="M 100.9375 0 C 107.519531 0 126.171875 -0.367188 131.65625 -25.601562 C 159.082031 -154.695312 159.449219 -157.253906 159.449219 -159.816406 C 159.449219 -176.636719 144.457031 -177.003906 138.605469 -177.003906 L 106.421875 -177.003906 L 124.339844 -260.019531 L 178.101562 -260.019531 C 182.125 -260.019531 186.148438 -263.3125 186.878906 -267.335938 L 193.828125 -301.34375 C 193.828125 -304.636719 191.632812 -307.195312 187.976562 -307.195312 L 101.300781 -307.195312 C 94.71875 -307.195312 76.066406 -306.832031 70.582031 -281.960938 C 42.789062 -150.308594 42.421875 -147.746094 42.421875 -145.1875 C 42.421875 -128.363281 57.417969 -128 63.269531 -128 L 95.449219 -128 L 78.992188 -51.566406 L 28.890625 -51.566406 C 24.867188 -51.566406 21.210938 -48.273438 20.113281 -44.25 C 12.433594 -6.582031 12.070312 -5.851562 12.070312 -5.484375 C 12.070312 -2.195312 14.992188 0 18.285156 0 Z M 100.9375 0 "/></g></g></g><path stroke-linecap="butt" transform="matrix(2.418878, 0, 0, 2.418878, 160.385125, 395.040879)" fill="none" stroke-linejoin="miter" d="M 34.475575 10.987039 C 32.813841 10.987039 31.153723 12.353245 30.858196 14.013364 C 5.131201 135.268238 4.98263 135.563765 4.98263 135.747864 C 4.98263 137.076928 6.201881 138.000651 7.566472 138.000651 L 25.543555 138.000651 C 27.203674 138.000651 28.716836 136.634445 29.196462 134.972711 L 39.901644 84.182446 L 47.173545 84.182446 C 36.431221 135.268238 36.284264 135.563765 36.284264 135.747864 C 36.284264 137.076928 37.5019 138.000651 38.868107 138.000651 L 56.843575 138.000651 C 58.505308 138.000651 60.018471 136.634445 60.460954 134.972711 L 86.187949 13.423925 C 86.187949 12.057718 85.26584 10.987039 83.752677 10.987039 L 65.777209 10.987039 C 64.115476 10.987039 62.453742 12.353245 62.122687 14.013364 L 51.27055 64.840772 L 43.998649 64.840772 L 54.887929 13.423925 C 54.887929 12.057718 53.964205 10.987039 52.451043 10.987039 Z M 102.823048 14.013364 C 78.313689 128.624534 78.313689 129.842169 78.313689 130.72875 C 78.313689 138.000651 84.663482 138.000651 87.098753 138.000651 L 128.956998 138.000651 C 130.618732 138.000651 132.131894 136.634445 132.574377 134.972711 C 158.00746 14.013364 158.154416 13.866408 158.154416 13.570881 C 158.154416 12.204674 157.083736 11.319708 155.71753 11.319708 L 137.742062 11.319708 C 136.081943 11.319708 134.42021 12.648772 133.940584 14.308891 L 111.866496 118.510406 L 104.631738 118.510406 L 126.852782 13.423925 C 126.852782 12.057718 125.930673 10.987039 124.41751 10.987039 L 106.440427 10.987039 C 104.780309 10.987039 103.118575 12.353245 102.823048 14.013364 Z M 178.558696 10.987039 C 176.896962 10.987039 175.235229 12.353245 174.941316 14.013364 C 149.212707 135.268238 149.065751 135.563765 149.065751 135.747864 C 149.065751 137.076928 150.283387 138.000651 151.649593 138.000651 L 167.669415 138.000651 C 169.329534 138.000651 170.842697 136.634445 171.286795 134.972711 L 183.540667 77.538742 C 190.185986 135.268238 190.037415 135.563765 190.037415 135.747864 C 190.037415 137.076928 191.255051 138.000651 192.621257 138.000651 L 208.345553 138.000651 C 210.007286 138.000651 211.520449 136.634445 211.962932 134.972711 L 237.652784 13.423925 C 237.652784 12.057718 236.767818 10.987039 235.254655 10.987039 L 219.53036 10.987039 C 217.868626 10.987039 216.208508 12.353245 215.912981 14.013364 L 202.735385 76.025579 L 197.013789 13.423925 C 197.013789 12.057718 196.091681 10.987039 194.576903 10.987039 Z M 229.952934 -13.189651 C 228.2912 -13.189651 226.631082 -11.825059 226.335555 -10.163325 L 223.456185 3.272654 C 223.456185 5.118487 224.379909 6.29898 225.893072 6.29898 L 255.975456 6.29898 C 228.586727 135.268238 228.439771 135.563765 228.439771 135.747864 C 228.439771 137.076928 229.657407 138.000651 231.023613 138.000651 L 248.852125 138.000651 C 250.512244 138.000651 252.025407 136.634445 252.469505 134.972711 L 279.856618 6.29898 L 309.940617 6.29898 C 311.600735 6.29898 313.262469 4.969916 313.557996 3.272654 L 316.437365 -10.754379 C 316.437365 -12.118971 315.513642 -13.189651 314.000479 -13.189651 Z M 294.985015 14.013364 C 269.256405 135.268238 269.109449 135.563765 269.109449 135.747864 C 269.109449 137.076928 270.327085 138.000651 271.693291 138.000651 L 315.839852 138.000651 C 317.49997 138.000651 319.013133 136.634445 319.457231 134.972711 L 322.188029 121.536731 L 322.188029 120.910149 C 322.188029 119.543943 321.265921 118.510406 319.752758 118.510406 L 296.793704 118.510406 L 304.359517 82.669283 L 319.899714 82.669283 C 321.561447 82.669283 323.258709 81.303077 323.701192 79.642958 C 326.729132 64.509717 326.876088 64.361146 326.876088 64.065619 C 326.876088 62.701027 325.805408 61.814446 324.439202 61.814446 L 308.863478 61.814446 L 315.544325 30.512812 L 338.503378 30.512812 C 340.163497 30.512812 341.825231 29.14822 342.1579 27.486487 L 345.147083 13.423925 C 345.147083 12.057718 344.262117 10.987039 342.747339 10.987039 L 298.602394 10.987039 C 296.94066 10.987039 295.280542 12.353245 294.985015 14.013364 Z M 406.694206 64.065619 C 416.070324 20.214585 416.21728 19.181048 416.21728 18.110369 C 416.21728 11.133995 410.016059 10.987039 407.616315 10.987039 L 365.427015 10.987039 C 363.765282 10.987039 362.105163 12.353245 361.809636 14.013364 C 336.082641 135.268238 335.93407 135.563765 335.93407 135.747864 C 335.93407 137.076928 337.153321 138.000651 338.517913 138.000651 L 356.494995 138.000651 C 358.155114 138.000651 359.668277 136.634445 360.149517 134.972711 L 370.853084 84.182446 L 378.124985 84.182446 C 367.382661 135.268238 367.235705 135.563765 367.235705 135.747864 C 367.235705 137.076928 368.45334 138.000651 369.819547 138.000651 L 387.795015 138.000651 C 389.456748 138.000651 390.969911 136.634445 391.412394 134.972711 C 402.154718 84.626544 402.301674 83.555864 402.301674 82.522327 C 402.301674 75.397382 396.100453 75.397382 393.700709 75.397382 L 393.996236 74.659372 C 396.72865 74.659372 404.58999 74.659372 406.694206 64.065619 Z M 382.368946 30.512812 L 389.603704 30.512812 L 382.22199 64.840772 L 374.950089 64.840772 Z M 444.930228 138.000651 C 447.661026 138.000651 455.37541 137.85208 457.663725 127.406898 C 468.995489 74.032791 469.14406 72.999254 469.14406 71.928574 C 469.14406 64.989343 462.942838 64.840772 460.505952 64.840772 L 447.218543 64.840772 L 454.6374 30.512812 L 476.858444 30.512812 C 478.520177 30.512812 480.180296 29.14822 480.475823 27.486487 L 483.355192 13.423925 C 483.355192 12.057718 482.431469 10.987039 480.918306 10.987039 L 445.114326 10.987039 C 442.383528 10.987039 434.669144 11.133995 432.416356 21.433836 C 420.900494 75.877008 420.753538 76.910545 420.753538 77.981225 C 420.753538 84.920456 426.953145 85.069027 429.390031 85.069027 L 442.679055 85.069027 L 435.88678 116.664574 L 415.178899 116.664574 C 413.51878 116.664574 412.004002 118.03078 411.524377 119.692514 C 408.351095 135.268238 408.202524 135.563765 408.202524 135.747864 C 408.202524 137.076928 409.42016 138.000651 410.786367 138.000651 Z M 444.930228 138.000651 " stroke="#f4f5f4" stroke-width="2.834944" stroke-opacity="1" stroke-miterlimit="4"/><path stroke-linecap="butt" transform="matrix(0.75, 0, 0, 0.75, 62.262843, 771.435989)" fill="none" stroke-linejoin="miter" d="M 37.498503 5.002015 L 1705.86317 5.002015 " stroke="#ffffff" stroke-width="10" stroke-opacity="1" stroke-miterlimit="4"/><path stroke-linecap="round" transform="matrix(0.75, 0, 0, 0.75, 62.262843, 771.435989)" fill="none" stroke-linejoin="round" d="M 4.998501 5.002015 C 4.998501 -3.284444 11.717251 -9.997986 19.998502 -9.997986 C 28.284961 -9.997986 34.998503 -3.284444 34.998503 5.002015 C 34.998503 13.283265 28.284961 20.002015 19.998502 20.002015 C 11.717251 20.002015 4.998501 13.283265 4.998501 5.002015 " stroke="#ffffff" stroke-width="10" stroke-opacity="1" stroke-miterlimit="4"/><path stroke-linecap="round" transform="matrix(0.75, 0, 0, 0.75, 62.262843, 771.435989)" fill="none" stroke-linejoin="round" d="M 1738.363172 5.002015 C 1738.363172 13.283265 1731.64963 20.002015 1723.363171 20.002015 C 1715.08192 20.002015 1708.36317 13.283265 1708.36317 5.002015 C 1708.36317 -3.284444 1715.08192 -9.997986 1723.363171 -9.997986 C 1731.64963 -9.997986 1738.363172 -3.284444 1738.363172 5.002015 " stroke="#ffffff" stroke-width="10" stroke-opacity="1" stroke-miterlimit="4"/><g clip-path="url(#1fa2db32cf)"><path fill="#f7f7f0" d="M 899.640625 225.53125 L 899.640625 211.765625 L 838.171875 211.765625 L 838.171875 225.53125 L 796.492188 225.53125 L 796.492188 211.765625 L 789.609375 211.765625 L 789.609375 190.738281 L 796.492188 190.738281 L 796.492188 170.5 L 789.609375 170.5 L 789.609375 108.203125 L 810.226562 108.203125 L 810.226562 94.46875 L 830.875 94.4375 L 830.875 80.703125 L 844.609375 80.703125 L 844.609375 66.9375 L 893.171875 66.9375 L 893.171875 80.703125 L 906.9375 80.703125 L 906.9375 94.4375 L 927.554688 94.46875 L 927.554688 108.203125 L 948.203125 108.203125 L 948.203125 170.5 L 941.320312 170.5 L 941.320312 190.738281 L 948.203125 190.738281 L 948.203125 211.765625 L 941.320312 211.765625 L 941.320312 225.53125 Z M 899.640625 225.53125 " fill-opacity="1" fill-rule="nonzero"/></g><path fill="#000000" d="M 868.90625 70.585938 L 848.257812 70.585938 L 848.257812 84.351562 L 834.523438 84.351562 L 834.523438 98.085938 L 813.875 98.085938 L 813.875 111.851562 L 793.257812 111.851562 L 793.257812 166.851562 L 800.140625 166.851562 L 800.140625 194.382812 L 793.257812 194.382812 L 793.257812 208.117188 L 800.140625 208.117188 L 800.140625 221.882812 L 834.523438 221.882812 L 834.523438 208.117188 L 903.289062 208.117188 L 903.289062 221.882812 L 937.671875 221.882812 L 937.671875 208.117188 L 944.554688 208.117188 L 944.554688 194.382812 L 937.671875 194.382812 L 937.671875 166.851562 L 944.554688 166.851562 L 944.554688 111.851562 L 923.90625 111.851562 L 923.90625 98.085938 L 903.289062 98.085938 L 903.289062 84.351562 L 889.523438 84.351562 L 889.523438 70.585938 L 875.789062 70.585938 " fill-opacity="1" fill-rule="nonzero"/><path fill="#d358b3" d="M 923.90625 125.617188 L 917.023438 125.617188 L 917.023438 111.851562 L 896.375 111.851562 L 896.375 98.085938 L 882.609375 98.085938 L 882.609375 84.351562 L 855.078125 84.351562 L 855.078125 98.117188 L 841.3125 98.117188 L 841.3125 111.882812 L 820.660156 111.882812 L 820.660156 125.617188 L 806.894531 125.617188 L 806.894531 166.882812 L 841.3125 166.882812 L 841.3125 180.648438 L 820.660156 180.648438 L 820.660156 194.414062 L 806.894531 194.414062 L 806.894531 208.179688 L 827.546875 208.179688 L 827.546875 194.414062 L 848.195312 194.414062 L 848.195312 180.648438 L 861.960938 180.648438 L 861.960938 194.414062 L 875.726562 194.414062 L 875.726562 180.648438 L 889.492188 180.648438 L 889.492188 194.414062 L 910.140625 194.414062 L 910.140625 208.179688 L 930.789062 208.179688 L 930.789062 194.414062 L 917.023438 194.414062 L 917.023438 180.648438 L 896.375 180.648438 L 896.375 166.882812 L 930.789062 166.882812 L 930.789062 125.617188 Z M 923.90625 125.617188 " fill-opacity="1" fill-rule="nonzero"/><path fill="#f9f346" d="M 896.40625 125.617188 L 882.640625 125.617188 L 882.640625 139.351562 L 903.289062 139.351562 L 903.289062 125.617188 Z M 896.40625 125.617188 " fill-opacity="1" fill-rule="nonzero"/><path fill="#f9f346" d="M 848.257812 125.617188 L 834.523438 125.617188 L 834.523438 139.351562 L 855.140625 139.351562 L 855.140625 125.617188 Z M 848.257812 125.617188 " fill-opacity="1" fill-rule="nonzero"/><g clip-path="url(#2746f98d03)"><path fill="#f7f7f0" d="M 1309.199219 184.664062 L 1309.199219 122.949219 L 1302.378906 122.949219 L 1302.378906 109.308594 L 1288.738281 109.308594 L 1288.738281 95.703125 L 1281.921875 95.703125 L 1281.921875 82.0625 L 1261.496094 82.0625 L 1261.496094 68.425781 L 1199.777344 68.425781 L 1199.777344 82.0625 L 1179.320312 82.0625 L 1179.320312 95.703125 L 1172.5 95.703125 L 1172.5 109.308594 L 1158.894531 109.308594 L 1158.894531 122.949219 L 1152.074219 122.949219 L 1152.074219 184.664062 L 1158.894531 184.664062 L 1158.894531 191.078125 L 1152.074219 191.078125 L 1152.074219 211.910156 L 1158.894531 211.910156 L 1158.894531 225.550781 L 1193.367188 225.550781 L 1193.367188 211.910156 L 1267.90625 211.910156 L 1267.90625 225.550781 L 1302.378906 225.550781 L 1302.378906 211.910156 L 1309.199219 211.910156 L 1309.199219 191.078125 L 1302.378906 191.078125 L 1302.378906 184.664062 Z M 1309.199219 184.664062 " fill-opacity="1" fill-rule="nonzero"/></g><path fill="#000000" d="M 1298.765625 126.5625 L 1298.765625 112.921875 L 1285.125 112.921875 L 1285.125 99.285156 L 1278.308594 99.285156 L 1278.308594 85.679688 L 1257.882812 85.679688 L 1257.882812 72.039062 L 1203.390625 72.039062 L 1203.390625 85.679688 L 1182.933594 85.679688 L 1182.933594 99.285156 L 1176.113281 99.285156 L 1176.113281 112.921875 L 1162.507812 112.921875 L 1162.507812 126.5625 L 1155.6875 126.5625 L 1155.6875 181.050781 L 1162.507812 181.050781 L 1162.507812 194.691406 L 1155.6875 194.691406 L 1155.6875 208.296875 L 1162.507812 208.296875 L 1162.507812 221.9375 L 1189.753906 221.9375 L 1189.753906 208.296875 L 1271.519531 208.296875 L 1271.519531 221.9375 L 1298.765625 221.9375 L 1298.765625 208.296875 L 1305.582031 208.296875 L 1305.582031 194.691406 L 1298.765625 194.691406 L 1298.765625 181.050781 L 1305.582031 181.050781 L 1305.582031 126.5625 Z M 1298.765625 126.5625 " fill-opacity="1" fill-rule="nonzero"/><path fill="#f14787" d="M 1264.699219 194.691406 L 1264.699219 181.050781 L 1278.339844 181.050781 L 1278.339844 194.691406 Z M 1285.125 208.296875 L 1291.945312 208.296875 L 1291.945312 194.660156 L 1278.308594 194.660156 L 1278.308594 208.296875 Z M 1291.945312 126.5625 L 1291.945312 167.445312 L 1264.667969 167.445312 L 1264.667969 181.082031 L 1251.03125 181.082031 L 1251.03125 194.722656 L 1210.117188 194.722656 L 1210.117188 181.082031 L 1196.476562 181.082031 L 1196.476562 167.414062 L 1169.199219 167.414062 L 1169.199219 126.5625 L 1189.65625 126.5625 L 1189.65625 99.285156 L 1210.117188 99.285156 L 1210.117188 85.679688 L 1251.03125 85.679688 L 1251.03125 99.316406 L 1271.488281 99.316406 L 1271.488281 126.59375 L 1285.125 126.59375 Z M 1182.933594 181.050781 L 1182.933594 194.691406 L 1196.570312 194.691406 L 1196.570312 181.050781 Z M 1169.328125 194.691406 L 1169.328125 208.328125 L 1182.964844 208.328125 L 1182.964844 194.691406 Z M 1169.328125 194.691406 " fill-opacity="1" fill-rule="nonzero"/><path fill="#f9f346" d="M 1251.0625 140.167969 L 1244.242188 140.167969 L 1244.242188 126.53125 L 1257.882812 126.53125 L 1257.882812 140.167969 Z M 1203.390625 126.5625 L 1203.390625 140.199219 L 1217.027344 140.199219 L 1217.027344 126.5625 Z M 1203.390625 126.5625 " fill-opacity="1" fill-rule="nonzero"/><g clip-path="url(#b2074ebdd4)"><path fill="#f7f7f0" d="M 1124.199219 156.546875 L 1124.199219 142.816406 L 1131.066406 142.816406 L 1131.066406 94.402344 L 1124.199219 94.402344 L 1124.199219 80.671875 L 1096.765625 80.671875 L 1096.765625 66.9375 L 1062.054688 66.9375 L 1062.054688 80.671875 L 1041.867188 80.671875 L 1041.867188 66.9375 L 1007.15625 66.9375 L 1007.15625 80.671875 L 979.722656 80.671875 L 979.722656 94.402344 L 972.855469 94.402344 L 972.855469 142.816406 L 979.722656 142.816406 L 979.722656 156.546875 L 986.589844 156.546875 L 986.589844 176.703125 L 979.722656 176.703125 L 979.722656 190.4375 L 972.855469 190.4375 L 972.855469 211.414062 L 979.722656 211.414062 L 979.722656 225.148438 L 1028.167969 225.148438 L 1028.167969 211.414062 L 1075.757812 211.414062 L 1075.757812 225.148438 L 1124.199219 225.148438 L 1124.199219 211.414062 L 1131.066406 211.414062 L 1131.066406 190.4375 L 1124.199219 190.4375 L 1124.199219 176.703125 L 1117.335938 176.703125 L 1117.335938 156.546875 Z M 1124.199219 156.546875 " fill-opacity="1" fill-rule="nonzero"/></g><path fill="#000000" d="M 1120.5625 98.011719 L 1120.5625 84.308594 L 1093.128906 84.308594 L 1093.128906 70.578125 L 1065.695312 70.578125 L 1065.695312 84.308594 L 1038.230469 84.308594 L 1038.230469 70.578125 L 1010.796875 70.578125 L 1010.796875 84.308594 L 983.363281 84.308594 L 983.363281 98.011719 L 976.496094 98.011719 L 976.496094 139.175781 L 983.363281 139.175781 L 983.363281 152.910156 L 990.230469 152.910156 L 990.230469 180.34375 L 983.363281 180.34375 L 983.363281 194.074219 L 976.496094 194.074219 L 976.496094 207.777344 L 983.363281 207.777344 L 983.363281 221.507812 L 1024.527344 221.507812 L 1024.527344 207.777344 L 1079.394531 207.777344 L 1079.394531 221.507812 L 1120.5625 221.507812 L 1120.5625 207.777344 L 1127.429688 207.777344 L 1127.429688 194.074219 L 1120.5625 194.074219 L 1120.5625 180.34375 L 1113.695312 180.34375 L 1113.695312 152.910156 L 1120.5625 152.910156 L 1120.5625 139.175781 L 1127.429688 139.175781 L 1127.429688 98.011719 Z M 1120.5625 98.011719 " fill-opacity="1" fill-rule="nonzero"/><path fill="#80c9f0" d="M 1079.394531 98.011719 L 1072.527344 98.011719 L 1072.527344 84.308594 L 1086.261719 84.308594 L 1086.261719 98.042969 Z M 1106.859375 98.011719 L 1099.996094 98.011719 L 1099.996094 125.476562 L 1086.261719 125.476562 L 1086.261719 111.742188 L 1072.527344 111.742188 L 1072.527344 98.011719 L 1058.796875 98.011719 L 1058.796875 111.742188 L 1045.0625 111.742188 L 1045.0625 98.011719 L 1031.332031 98.011719 L 1031.332031 111.742188 L 1017.597656 111.742188 L 1017.597656 125.476562 L 1003.867188 125.476562 L 1003.867188 98.011719 L 990.132812 98.011719 L 990.132812 139.207031 L 1003.867188 139.207031 L 1003.867188 194.109375 L 990.132812 194.109375 L 990.132812 207.839844 L 1017.597656 207.839844 L 1017.597656 180.375 L 1031.332031 180.375 L 1031.332031 194.109375 L 1045.0625 194.109375 L 1045.0625 180.375 L 1058.796875 180.375 L 1058.796875 194.109375 L 1072.527344 194.109375 L 1072.527344 180.375 L 1086.261719 180.375 L 1086.261719 207.839844 L 1113.726562 207.839844 L 1113.726562 194.109375 L 1099.996094 194.109375 L 1099.996094 139.207031 L 1113.726562 139.207031 L 1113.726562 98.011719 Z M 1024.527344 98.011719 L 1031.394531 98.011719 L 1031.394531 84.308594 L 1017.660156 84.308594 L 1017.660156 98.042969 Z M 1024.527344 98.011719 " fill-opacity="1" fill-rule="nonzero"/><path fill="#52829b" d="M 1079.394531 152.910156 L 1079.394531 166.609375 L 1065.664062 166.609375 L 1065.664062 139.175781 L 1079.394531 139.175781 Z M 1038.230469 152.910156 L 1038.230469 139.175781 L 1024.496094 139.175781 L 1024.496094 166.609375 L 1038.230469 166.609375 Z M 1038.230469 152.910156 " fill-opacity="1" fill-rule="nonzero"/><g fill="#f9f346" fill-opacity="1"><g transform="translate(762.954472, 329.786932)"><g><path d="M 96.765625 -71.453125 L 78.59375 0 L 61.34375 0 L 51.65625 -37.53125 C 51.457031 -38.25 51.195312 -39.34375 50.875 -40.8125 C 50.550781 -42.28125 50.207031 -43.882812 49.84375 -45.625 C 49.488281 -47.363281 49.171875 -49.003906 48.890625 -50.546875 C 48.617188 -52.097656 48.4375 -53.332031 48.34375 -54.25 C 48.238281 -53.332031 48.046875 -52.109375 47.765625 -50.578125 C 47.492188 -49.046875 47.1875 -47.414062 46.84375 -45.6875 C 46.5 -43.96875 46.164062 -42.359375 45.84375 -40.859375 C 45.519531 -39.359375 45.257812 -38.21875 45.0625 -37.4375 L 35.4375 0 L 18.234375 0 L 0 -71.453125 L 14.90625 -71.453125 L 24.046875 -32.453125 C 24.304688 -31.273438 24.609375 -29.875 24.953125 -28.25 C 25.296875 -26.625 25.632812 -24.921875 25.96875 -23.140625 C 26.3125 -21.367188 26.625 -19.660156 26.90625 -18.015625 C 27.1875 -16.367188 27.390625 -14.941406 27.515625 -13.734375 C 27.679688 -14.972656 27.894531 -16.414062 28.15625 -18.0625 C 28.414062 -19.707031 28.695312 -21.382812 29 -23.09375 C 29.3125 -24.800781 29.628906 -26.390625 29.953125 -27.859375 C 30.285156 -29.328125 30.582031 -30.515625 30.84375 -31.421875 L 41.25 -71.453125 L 55.5625 -71.453125 L 65.984375 -31.421875 C 66.210938 -30.546875 66.476562 -29.363281 66.78125 -27.875 C 67.09375 -26.394531 67.410156 -24.789062 67.734375 -23.0625 C 68.066406 -21.34375 68.367188 -19.660156 68.640625 -18.015625 C 68.921875 -16.367188 69.125 -14.941406 69.25 -13.734375 C 69.476562 -15.359375 69.796875 -17.335938 70.203125 -19.671875 C 70.609375 -22.003906 71.046875 -24.328125 71.515625 -26.640625 C 71.992188 -28.953125 72.410156 -30.890625 72.765625 -32.453125 L 81.859375 -71.453125 Z M 96.765625 -71.453125 "/></g></g></g><g fill="#f9f346" fill-opacity="1"><g transform="translate(859.718861, 329.786932)"><g><path d="M 73.84375 -35.828125 C 73.84375 -30.316406 73.160156 -25.304688 71.796875 -20.796875 C 70.429688 -16.285156 68.351562 -12.398438 65.5625 -9.140625 C 62.78125 -5.878906 59.253906 -3.375 54.984375 -1.625 C 50.710938 0.113281 45.660156 0.984375 39.828125 0.984375 C 33.992188 0.984375 28.941406 0.113281 24.671875 -1.625 C 20.410156 -3.375 16.882812 -5.878906 14.09375 -9.140625 C 11.3125 -12.398438 9.234375 -16.289062 7.859375 -20.8125 C 6.492188 -25.34375 5.8125 -30.378906 5.8125 -35.921875 C 5.8125 -43.316406 7.023438 -49.757812 9.453125 -55.25 C 11.878906 -60.738281 15.617188 -65 20.671875 -68.03125 C 25.722656 -71.0625 32.144531 -72.578125 39.9375 -72.578125 C 47.6875 -72.578125 54.0625 -71.0625 59.0625 -68.03125 C 64.0625 -65 67.773438 -60.726562 70.203125 -55.21875 C 72.628906 -49.71875 73.84375 -43.253906 73.84375 -35.828125 Z M 21.703125 -35.828125 C 21.703125 -30.835938 22.328125 -26.539062 23.578125 -22.9375 C 24.835938 -19.34375 26.800781 -16.578125 29.46875 -14.640625 C 32.144531 -12.703125 35.597656 -11.734375 39.828125 -11.734375 C 44.128906 -11.734375 47.613281 -12.703125 50.28125 -14.640625 C 52.957031 -16.578125 54.90625 -19.34375 56.125 -22.9375 C 57.351562 -26.539062 57.96875 -30.835938 57.96875 -35.828125 C 57.96875 -43.316406 56.566406 -49.210938 53.765625 -53.515625 C 50.960938 -57.816406 46.351562 -59.96875 39.9375 -59.96875 C 35.664062 -59.96875 32.1875 -59 29.5 -57.0625 C 26.8125 -55.125 24.835938 -52.351562 23.578125 -48.75 C 22.328125 -45.144531 21.703125 -40.835938 21.703125 -35.828125 Z M 21.703125 -35.828125 "/></g></g></g><g fill="#f9f346" fill-opacity="1"><g transform="translate(939.378435, 329.786932)"><g><path d="M 29.8125 -71.453125 C 36.289062 -71.453125 41.640625 -70.671875 45.859375 -69.109375 C 50.085938 -67.546875 53.226562 -65.179688 55.28125 -62.015625 C 57.332031 -58.859375 58.359375 -54.867188 58.359375 -50.046875 C 58.359375 -46.785156 57.738281 -43.929688 56.5 -41.484375 C 55.257812 -39.046875 53.628906 -36.976562 51.609375 -35.28125 C 49.585938 -33.59375 47.40625 -32.207031 45.0625 -31.125 L 66.078125 0 L 49.265625 0 L 32.203125 -27.421875 L 24.140625 -27.421875 L 24.140625 0 L 9 0 L 9 -71.453125 Z M 28.734375 -59.046875 L 24.140625 -59.046875 L 24.140625 -39.734375 L 29.03125 -39.734375 C 34.050781 -39.734375 37.644531 -40.570312 39.8125 -42.25 C 41.976562 -43.925781 43.0625 -46.394531 43.0625 -49.65625 C 43.0625 -53.039062 41.894531 -55.453125 39.5625 -56.890625 C 37.226562 -58.328125 33.617188 -59.046875 28.734375 -59.046875 Z M 28.734375 -59.046875 "/></g></g></g><g fill="#f9f346" fill-opacity="1"><g transform="translate(1005.451896, 329.786932)"><g><path d="M 66.46875 0 L 49.265625 0 L 30.546875 -30.109375 L 24.140625 -25.515625 L 24.140625 0 L 9 0 L 9 -71.453125 L 24.140625 -71.453125 L 24.140625 -38.75 C 25.148438 -40.15625 26.144531 -41.554688 27.125 -42.953125 C 28.101562 -44.359375 29.097656 -45.757812 30.109375 -47.15625 L 49.453125 -71.453125 L 66.265625 -71.453125 L 41.34375 -39.828125 Z M 66.46875 0 "/></g></g></g><g fill="#f9f346" fill-opacity="1"><g transform="translate(1071.916325, 329.786932)"><g><path d="M 51.171875 -19.84375 C 51.171875 -15.601562 50.144531 -11.921875 48.09375 -8.796875 C 46.039062 -5.671875 43.050781 -3.257812 39.125 -1.5625 C 35.195312 0.132812 30.429688 0.984375 24.828125 0.984375 C 22.347656 0.984375 19.925781 0.816406 17.5625 0.484375 C 15.207031 0.160156 12.945312 -0.316406 10.78125 -0.953125 C 8.613281 -1.585938 6.550781 -2.378906 4.59375 -3.328125 L 4.59375 -17.40625 C 7.976562 -15.90625 11.492188 -14.550781 15.140625 -13.34375 C 18.796875 -12.132812 22.414062 -11.53125 26 -11.53125 C 28.476562 -11.53125 30.472656 -11.851562 31.984375 -12.5 C 33.503906 -13.15625 34.601562 -14.050781 35.28125 -15.1875 C 35.96875 -16.332031 36.3125 -17.640625 36.3125 -19.109375 C 36.3125 -20.898438 35.707031 -22.429688 34.5 -23.703125 C 33.300781 -24.972656 31.648438 -26.160156 29.546875 -27.265625 C 27.441406 -28.378906 25.070312 -29.570312 22.4375 -30.84375 C 20.769531 -31.625 18.957031 -32.578125 17 -33.703125 C 15.050781 -34.828125 13.195312 -36.203125 11.4375 -37.828125 C 9.675781 -39.453125 8.234375 -41.429688 7.109375 -43.765625 C 5.984375 -46.097656 5.421875 -48.894531 5.421875 -52.15625 C 5.421875 -56.414062 6.398438 -60.0625 8.359375 -63.09375 C 10.316406 -66.125 13.109375 -68.445312 16.734375 -70.0625 C 20.367188 -71.675781 24.664062 -72.484375 29.625 -72.484375 C 33.332031 -72.484375 36.875 -72.050781 40.25 -71.1875 C 43.625 -70.320312 47.148438 -69.078125 50.828125 -67.453125 L 45.9375 -55.671875 C 42.644531 -57.003906 39.695312 -58.035156 37.09375 -58.765625 C 34.488281 -59.503906 31.832031 -59.875 29.125 -59.875 C 27.238281 -59.875 25.625 -59.570312 24.28125 -58.96875 C 22.945312 -58.363281 21.9375 -57.515625 21.25 -56.421875 C 20.570312 -55.328125 20.234375 -54.066406 20.234375 -52.640625 C 20.234375 -50.941406 20.726562 -49.515625 21.71875 -48.359375 C 22.71875 -47.203125 24.21875 -46.085938 26.21875 -45.015625 C 28.226562 -43.941406 30.726562 -42.6875 33.71875 -41.25 C 37.375 -39.519531 40.492188 -37.71875 43.078125 -35.84375 C 45.671875 -33.96875 47.664062 -31.769531 49.0625 -29.25 C 50.46875 -26.726562 51.171875 -23.59375 51.171875 -19.84375 Z M 51.171875 -19.84375 "/></g></g></g><g fill="#f9f346" fill-opacity="1"><g transform="translate(1127.042704, 329.786932)"><g><path d="M 67.546875 0 L 52.4375 0 L 52.4375 -30.84375 L 24.140625 -30.84375 L 24.140625 0 L 9 0 L 9 -71.453125 L 24.140625 -71.453125 L 24.140625 -43.453125 L 52.4375 -43.453125 L 52.4375 -71.453125 L 67.546875 -71.453125 Z M 67.546875 0 "/></g></g></g><g fill="#f9f346" fill-opacity="1"><g transform="translate(1203.623425, 329.786932)"><g><path d="M 73.84375 -35.828125 C 73.84375 -30.316406 73.160156 -25.304688 71.796875 -20.796875 C 70.429688 -16.285156 68.351562 -12.398438 65.5625 -9.140625 C 62.78125 -5.878906 59.253906 -3.375 54.984375 -1.625 C 50.710938 0.113281 45.660156 0.984375 39.828125 0.984375 C 33.992188 0.984375 28.941406 0.113281 24.671875 -1.625 C 20.410156 -3.375 16.882812 -5.878906 14.09375 -9.140625 C 11.3125 -12.398438 9.234375 -16.289062 7.859375 -20.8125 C 6.492188 -25.34375 5.8125 -30.378906 5.8125 -35.921875 C 5.8125 -43.316406 7.023438 -49.757812 9.453125 -55.25 C 11.878906 -60.738281 15.617188 -65 20.671875 -68.03125 C 25.722656 -71.0625 32.144531 -72.578125 39.9375 -72.578125 C 47.6875 -72.578125 54.0625 -71.0625 59.0625 -68.03125 C 64.0625 -65 67.773438 -60.726562 70.203125 -55.21875 C 72.628906 -49.71875 73.84375 -43.253906 73.84375 -35.828125 Z M 21.703125 -35.828125 C 21.703125 -30.835938 22.328125 -26.539062 23.578125 -22.9375 C 24.835938 -19.34375 26.800781 -16.578125 29.46875 -14.640625 C 32.144531 -12.703125 35.597656 -11.734375 39.828125 -11.734375 C 44.128906 -11.734375 47.613281 -12.703125 50.28125 -14.640625 C 52.957031 -16.578125 54.90625 -19.34375 56.125 -22.9375 C 57.351562 -26.539062 57.96875 -30.835938 57.96875 -35.828125 C 57.96875 -43.316406 56.566406 -49.210938 53.765625 -53.515625 C 50.960938 -57.816406 46.351562 -59.96875 39.9375 -59.96875 C 35.664062 -59.96875 32.1875 -59 29.5 -57.0625 C 26.8125 -55.125 24.835938 -52.351562 23.578125 -48.75 C 22.328125 -45.144531 21.703125 -40.835938 21.703125 -35.828125 Z M 21.703125 -35.828125 "/></g></g></g><g fill="#f9f346" fill-opacity="1"><g transform="translate(1283.282999, 329.786932)"><g><path d="M 31.8125 -71.453125 C 41.03125 -71.453125 47.757812 -69.472656 52 -65.515625 C 56.238281 -61.554688 58.359375 -56.109375 58.359375 -49.171875 C 58.359375 -46.035156 57.882812 -43.039062 56.9375 -40.1875 C 55.988281 -37.34375 54.445312 -34.8125 52.3125 -32.59375 C 50.1875 -30.382812 47.347656 -28.632812 43.796875 -27.34375 C 40.242188 -26.0625 35.859375 -25.421875 30.640625 -25.421875 L 24.140625 -25.421875 L 24.140625 0 L 9 0 L 9 -71.453125 Z M 31.03125 -59.046875 L 24.140625 -59.046875 L 24.140625 -37.828125 L 29.125 -37.828125 C 31.957031 -37.828125 34.414062 -38.203125 36.5 -38.953125 C 38.59375 -39.703125 40.207031 -40.875 41.34375 -42.46875 C 42.488281 -44.0625 43.0625 -46.113281 43.0625 -48.625 C 43.0625 -52.144531 42.082031 -54.757812 40.125 -56.46875 C 38.164062 -58.1875 35.132812 -59.046875 31.03125 -59.046875 Z M 31.03125 -59.046875 "/></g></g></g></svg>